<?xml version="1.0" encoding="utf-8"?>
<!-- Generator: Adobe Illustrator 21.1.0, SVG Export Plug-In . SVG Version: 6.00 Build 0)  -->
<svg version="1.1" id="Layer_1" xmlns="http://www.w3.org/2000/svg" xmlns:xlink="http://www.w3.org/1999/xlink" x="0px" y="0px"
	 viewBox="0 0 600.4 330" style="enable-background:new 0 0 600.4 330;" xml:space="preserve">
<style type="text/css">
	.st0{fill:none;stroke:#B5B7B7;stroke-width:2;stroke-linecap:round;stroke-linejoin:round;}
	.st1{fill:none;stroke:#B5B7B7;stroke-width:2;stroke-linecap:round;}
	.st2{fill:none;stroke:#B5B7B7;stroke-width:2;}
	.st3{fill:none;stroke:#B5B7B7;stroke-width:2;stroke-linejoin:round;}
	.st4{fill:#B5B7B7;}
	.st5{font-family:'HelveticaNeueLTStd-BdCn';}
	.st6{font-size:10.6684px;}
	.st7{font-family:'KozGoPr6N-Medium-83pv-RKSJ-H';}
	.st8{font-size:9.0271px;}
	.st9{font-family:'HelveticaNeue-CondensedBold';}
	.st10{font-size:15.5923px;}
	.st11{font-family:'KozGoPr6N-Regular-83pv-RKSJ-H';}
	.st12{font-size:13.1303px;}
</style>
<g>
	<line class="st0" x1="359.5" y1="317.1" x2="442.2" y2="317.1"/>
	<path class="st1" d="M193.1,91.4h4.9 M117.6,136.6h4.9 M257.3,60.3h5.3 M268.9,60.3h26.9 M202.5,75.8h5.3 M378.2,206.4h4.9
		 M61.8,144.3h4.9 M114.5,288.8h4.7 M101,288.8h9.3 M90.4,278.6h5.4 M81.6,316.4h45.9 M81.6,310.3h45.9 M81.6,304h45.9 M114.5,278.6
		h10.8 M101,278.6h9.3 M114.3,267.6h5.5 M100.4,267.6h9.3 M114.3,246h5.5 M100.4,246h9.3 M90.4,256.8h5.4 M114.3,256.8h5.5
		 M100.4,256.8h9.3 M126.4,235.2h13.7 M62.5,246h4.9 M399,122.1h4.9 M266.1,101.6h20.4 M298.5,101.6h4.9 M362.4,110.9h4.9
		 M389,206.4h18.8 M72.6,144.3h18.8 M89.7,288.7h5.5 M81.9,267.6h14.2 M73.3,246H96 M409.8,122.1h18.8 M381.2,95.6H400 M450.9,219.5
		h5.3 M375.9,152.9h5.3 M167.9,65.8h9.2 M167.9,75.8h26.9 M167.9,80.8h9.2 M277.9,132.4H295 M103.6,164.5h23.9 M208.8,65.8h23.9
		 M402.1,219.5h43.6"/>
	<polyline class="st0" points="119.9,297.2 119.9,235.1 89.7,235.1 89.7,297.2 	"/>
	<line class="st2" x1="99.8" y1="235.5" x2="99.8" y2="297.2"/>
	<line class="st1" x1="95.9" y1="297.2" x2="95.9" y2="328"/>
	<line class="st2" x1="110.3" y1="235.5" x2="110.3" y2="297.2"/>
	<path class="st1" d="M167.9,235v92.3 M149.4,317v10.3 M114.1,297.2V328"/>
	<path class="st1" d="M284.1,317h-93.2 M266.1,306.8h-58.3 M256.4,296.5h-38.9 M256.4,286.2h-38.8 M256.4,276h-38.8 M266.1,265.7
		h-57.4 M266.1,255.5h-57.4 M266.1,245.2h-57.4 M266.1,235h-57.4 M266.1,224.7h-57.4 M266.1,214.4h-57.4 M275.9,193.9h-77.7
		 M275.8,183.7H198 M297.5,173.4H190.8 M284.1,163.2h-93.2 M177.1,317h-36.6 M177.1,306.8h-36.6 M177.1,296.5h-27.6 M177.1,286.2
		h-27.6 M177.1,276h-27.6 M177.1,265.7h-27.6 M183,255.5h-42.6 M297.5,245.2h-9.7 M177.1,245.2h-36.6 M177.1,235h-36.6 M290.1,224.7
		h-6 M177.1,224.7h-36.6 M189.8,214.4H183 M177.1,214.4h-36.6 M266.1,204.2h-58.3 M177.1,204.2h-36.7 M177.1,193.9h-36.6
		 M177.1,183.7h-36.6 M181.8,173.4h-41.4 M177.1,163.2h-36.6 M167.9,152.9h-27.5 M167.9,142.6h-40.3 M167.9,132.4h-27.5 M351.4,317
		h-53.9 M351.4,306.8h-53.9 M351.4,296.5h-53.9 M351.4,286.2h-38.8 M297.5,276h-6.8 M351.4,276h-38.8 M351.4,265.7h-38.8
		 M351.4,255.5h-53.9 M351.4,245.2h-53.9 M367.3,235h-54.7 M351.4,224.7h-38.8 M351.4,214.4h-38.8 M351.4,204.2h-53.9 M351.4,193.9
		h-38.8 M360.8,183.7h-48.1 M351.4,173.4h-38.8 M351.4,163.2h-46.5 M370.6,152.9h-58 M351.4,142.6h-38.8 M351.4,132.4h-29.1
		 M357.2,122.1h-34.8 M202.5,122.1h-25.4 M167.9,122.1h-27.5 M167.9,111.9h-27.5 M167.9,101.6h-27.5 M167.9,91.4h-45.4 M177.1,81.1
		h-36.6 M177.1,70.8h-36.6"/>
	<path class="st1" d="M237,286.2v20.5 M246.7,148v157.6 M246.7,317v11 M227.3,148v157.6 M227.3,317v11 M158.6,60.6v20.5 M158.6,91.4
		v92.1 M158.6,193.9v30.8 M167.9,60.6v123.1 M167.9,193.9v30.8 M158.6,235v82 M275.8,148v117.7h-9.7 M266.1,148v180 M256.4,148v169
		 M341.7,110.9V328 M332,110.9v195.8 M322.3,110.9V328 M312.6,193.9v112.8 M217.5,148v169 M207.8,148v180 M198.1,148v117.7h10.6
		 M149.4,60.6v246.2"/>
	<line class="st2" x1="400.9" y1="276.3" x2="400.9" y2="316.6"/>
	<path class="st1" d="M425.5,275.8V328 M376.7,275.8V328"/>
	<polyline class="st3" points="385.6,317.2 385.6,282.8 415.9,282.8 415.9,316.5 	"/>
	<path class="st1" d="M389.1,275.8V328 M412.5,275.8V328"/>
	<polyline class="st0" points="437.6,282.8 434.4,282.8 434.4,316.5 	"/>
	<line class="st0" x1="364.9" y1="311.3" x2="437.4" y2="311.3"/>
	<line class="st0" x1="364.9" y1="301.3" x2="437.4" y2="301.3"/>
	<line class="st0" x1="364.9" y1="286.2" x2="437.4" y2="286.2"/>
	<polyline class="st0" points="364.6,282.8 367.8,282.8 367.8,316.5 	"/>
	<text transform="matrix(1 0 0 1 85.7656 198.3503)" class="st4 st5 st6">1</text>
	<text transform="matrix(1 0 0 1 90.3656 198.3503)" class="st4 st5 st6">5 </text>
	<text transform="matrix(1 0 0 1 98.0656 198.3503)" class="st4 st5 st6">W</text>
	<text transform="matrix(1 0 0 1 105.8656 198.3503)" class="st4 st5 st6">A</text>
	<text transform="matrix(1 0 0 1 111.8656 198.3503)" class="st4 st5 st6">N</text>
	<text transform="matrix(1 0 0 1 117.9656 198.3503)" class="st4 st5 st6">G</text>
	<text transform="matrix(1 0 0 1 81.6367 209.8396)" class="st4 st5 st6">CH</text>
	<text transform="matrix(1 0 0 1 93.2367 209.8396)" class="st4 st5 st6">I</text>
	<text transform="matrix(1 0 0 1 95.9367 209.8396)" class="st4 st5 st6">U </text>
	<text transform="matrix(1 0 0 1 104.2367 209.8396)" class="st4 st5 st6">R</text>
	<text transform="matrix(1 0 0 1 110.0367 209.8396)" class="st4 st5 st6">O</text>
	<text transform="matrix(1 0 0 1 115.9367 209.8396)" class="st4 st5 st6">A</text>
	<text transform="matrix(1 0 0 1 121.9367 209.8396)" class="st4 st5 st6">D</text>
	<g>
		<text transform="matrix(1 0 0 1 82.2153 221.3279)" class="st4 st7 st8">宏照道15號</text>
	</g>
	<text transform="matrix(1 0 0 1 328.8442 61.1013)" class="st4 st5 st6">6</text>
	<text transform="matrix(1 0 0 1 334.1442 61.1013)" class="st4 st5 st6">5</text>
	<text transform="matrix(1 0 0 1 339.4442 61.1013)" class="st4 st5 st6">5</text>
	<text transform="matrix(1 0 0 1 344.5269 61.1013)" class="st4 st5 st6"> </text>
	<text transform="matrix(1 0 0 1 319.1895 72.5915)" class="st4 st5 st6">N</text>
	<text transform="matrix(1 0 0 1 325.3895 72.5915)" class="st4 st5 st6">A</text>
	<text transform="matrix(1 0 0 1 330.7895 72.5915)" class="st4 st5 st6">T</text>
	<text transform="matrix(1 0 0 1 335.9895 72.5915)" class="st4 st5 st6">H</text>
	<text transform="matrix(1 0 0 1 341.9895 72.5915)" class="st4 st5 st6">A</text>
	<text transform="matrix(1 0 0 1 348.0895 72.5915)" class="st4 st5 st6">N</text>
	<text transform="matrix(1 0 0 1 354.1709 72.5915)" class="st4 st5 st6"> </text>
	<text transform="matrix(1 0 0 1 324.7905 84.0818)" class="st4 st5 st6">R</text>
	<text transform="matrix(1 0 0 1 330.5905 84.0818)" class="st4 st5 st6">O</text>
	<text transform="matrix(1 0 0 1 336.4905 84.0818)" class="st4 st5 st6">A</text>
	<text transform="matrix(1 0 0 1 342.4905 84.0818)" class="st4 st5 st6">D</text>
	<text transform="matrix(1 0 0 1 348.5698 84.0818)" class="st4 st5 st6"> </text>
	<text transform="matrix(1 0 0 1 310.562 96.1875)" class="st4 st7 st8">彌</text>
	<text transform="matrix(1 0 0 1 319.462 96.1875)" class="st4 st7 st8">敦</text>
	<text transform="matrix(1 0 0 1 328.362 96.1875)" class="st4 st7 st8">道6</text>
	<text transform="matrix(1 0 0 1 342.162 95.5686)" class="st4 st7 st8">5</text>
	<text transform="matrix(1 0 0 1 346.962 95.5686)" class="st4 st7 st8">5</text>
	<text transform="matrix(1 0 0 1 351.762 96.1875)" class="st4 st7 st8">號</text>
	<text transform="matrix(1 0 0 1 149.8848 11.6247)" class="st4 st5 st6">ONE</text>
	<text transform="matrix(1 0 0 1 167.0605 11.6247)" class="st4 st5 st6"> </text>
	<text transform="matrix(1 0 0 1 142.1182 23.1145)" class="st4 st5 st6">P</text>
	<text transform="matrix(1 0 0 1 147.3182 23.1145)" class="st4 st5 st6">A</text>
	<text transform="matrix(1 0 0 1 153.1182 23.1145)" class="st4 st5 st6">C</text>
	<text transform="matrix(1 0 0 1 158.8182 23.1145)" class="st4 st5 st6">I</text>
	<text transform="matrix(1 0 0 1 161.5182 23.1145)" class="st4 st5 st6">F</text>
	<text transform="matrix(1 0 0 1 166.4182 23.1145)" class="st4 st5 st6">I</text>
	<text transform="matrix(1 0 0 1 169.1182 23.1145)" class="st4 st5 st6">C</text>
	<text transform="matrix(1 0 0 1 174.8384 23.1145)" class="st4 st5 st6"> </text>
	<text transform="matrix(1 0 0 1 141.894 34.6042)" class="st4 st5 st6">C</text>
	<text transform="matrix(1 0 0 1 147.594 34.6042)" class="st4 st5 st6">E</text>
	<text transform="matrix(1 0 0 1 152.694 34.6042)" class="st4 st5 st6">NT</text>
	<text transform="matrix(1 0 0 1 163.994 34.6042)" class="st4 st5 st6">RE</text>
	<text transform="matrix(1 0 0 1 175.062 34.6042)" class="st4 st5 st6"> </text>
	<g>
		<text transform="matrix(1 0 0 1 138.3687 46.0919)" class="st4 st7 st8">1亞太中心</text>
	</g>
	<text transform="matrix(1 0 0 1 491.9316 161.3484)" class="st4 st9 st10">H</text>
	<text transform="matrix(1 0 0 1 500.3316 161.3484)" class="st4 st9 st10">K</text>
	<text transform="matrix(1 0 0 1 508.3316 161.3484)" class="st4 st9 st10">P</text>
	<text transform="matrix(1 0 0 1 515.8316 161.3484)" class="st4 st9 st10">I</text>
	<text transform="matrix(1 0 0 1 447.541 178.5915)" class="st4 st9 st10">PR</text>
	<text transform="matrix(1 0 0 1 463.3409 178.5915)" class="st4 st9 st10">O</text>
	<text transform="matrix(1 0 0 1 471.541 178.5915)" class="st4 st9 st10">P</text>
	<text transform="matrix(1 0 0 1 479.141 178.5915)" class="st4 st9 st10">E</text>
	<text transform="matrix(1 0 0 1 486.041 178.5915)" class="st4 st9 st10">R</text>
	<text transform="matrix(1 0 0 1 494.241 178.5915)" class="st4 st9 st10">T</text>
	<text transform="matrix(1 0 0 1 501.241 178.5915)" class="st4 st9 st10">I</text>
	<text transform="matrix(1 0 0 1 505.041 178.5915)" class="st4 st9 st10">E</text>
	<text transform="matrix(1 0 0 1 511.841 178.5915)" class="st4 st9 st10">S</text>
	<text transform="matrix(1 0 0 1 441.1221 193.3542)" class="st4 st11 st12">港豐發展物業</text>
	<text transform="matrix(1 0 0 1 229.062 102.9743)" class="st4 st5 st6">2</text>
	<text transform="matrix(1 0 0 1 234.262 102.9743)" class="st4 st5 st6">3</text>
	<text transform="matrix(1 0 0 1 239.562 102.9743)" class="st4 st5 st6">8</text>
	<text transform="matrix(1 0 0 1 219.3857 114.4641)" class="st4 st5 st6">N</text>
	<text transform="matrix(1 0 0 1 225.5857 114.4641)" class="st4 st5 st6">A</text>
	<text transform="matrix(1 0 0 1 230.9857 114.4641)" class="st4 st5 st6">T</text>
	<text transform="matrix(1 0 0 1 236.1857 114.4641)" class="st4 st5 st6">H</text>
	<text transform="matrix(1 0 0 1 242.1857 114.4641)" class="st4 st5 st6">A</text>
	<text transform="matrix(1 0 0 1 248.2857 114.4641)" class="st4 st5 st6">N</text>
	<text transform="matrix(1 0 0 1 224.9858 125.9543)" class="st4 st5 st6">R</text>
	<text transform="matrix(1 0 0 1 230.7858 125.9543)" class="st4 st5 st6">O</text>
	<text transform="matrix(1 0 0 1 236.6858 125.9543)" class="st4 st5 st6">A</text>
	<text transform="matrix(1 0 0 1 242.6858 125.9543)" class="st4 st5 st6">D</text>
	<g>
		<text transform="matrix(1 0 0 1 210.709 137.4416)" class="st4 st7 st8">彌敦道238號</text>
	</g>
	<text transform="matrix(1 0 0 1 386.0771 242.2654)" class="st4 st5 st6">H</text>
	<text transform="matrix(1 0 0 1 391.9771 242.2654)" class="st4 st5 st6">I</text>
	<text transform="matrix(1 0 0 1 394.6771 242.2654)" class="st4 st5 st6">L</text>
	<text transform="matrix(1 0 0 1 398.9771 242.2654)" class="st4 st5 st6">T</text>
	<text transform="matrix(1 0 0 1 404.0771 242.2654)" class="st4 st5 st6">ON</text>
	<text transform="matrix(1 0 0 1 387.4102 253.7556)" class="st4 st5 st6">P</text>
	<text transform="matrix(1 0 0 1 392.9102 253.7556)" class="st4 st5 st6">L</text>
	<text transform="matrix(1 0 0 1 398.2102 253.7556)" class="st4 st5 st6">A</text>
	<text transform="matrix(1 0 0 1 404.0102 253.7556)" class="st4 st5 st6">C</text>
	<text transform="matrix(1 0 0 1 409.7102 253.7556)" class="st4 st5 st6">E</text>
	<g>
		<text transform="matrix(1 0 0 1 378.9131 265.2439)" class="st4 st7 st8">希爾頓大廈</text>
	</g>
</g>
</svg>
