<?xml version="1.0" encoding="utf-8"?>
<!-- Generator: Adobe Illustrator 21.1.0, SVG Export Plug-In . SVG Version: 6.00 Build 0)  -->
<svg version="1.1" id="Layer_1" xmlns="http://www.w3.org/2000/svg" xmlns:xlink="http://www.w3.org/1999/xlink" x="0px" y="0px"
	 width="600.4px" height="330px" viewBox="0 0 600.4 330" style="enable-background:new 0 0 600.4 330;" xml:space="preserve">
<style type="text/css">
	.st0{fill:none;stroke:#B5B7B7;stroke-width:2;stroke-linecap:round;stroke-linejoin:round;}
	.st1{fill:none;stroke:#B5B7B7;stroke-width:2;stroke-linecap:round;}
	.st2{fill:none;stroke:#B5B7B7;stroke-width:2;}
	.st3{fill:none;stroke:#B5B7B7;stroke-width:2;stroke-linejoin:round;}
	.st4{enable-background:new    ;}
	.st5{fill:#B5B7B7;}
</style>
<g>
	<line class="st0" x1="359.5" y1="317.1" x2="442.2" y2="317.1"/>
	<path class="st1" d="M193.1,91.4h4.9 M117.6,136.6h4.9 M257.3,60.3h5.3 M268.9,60.3h26.9 M202.5,75.8h5.3 M378.2,206.4h4.9
		 M61.8,144.3h4.9 M114.5,288.8h4.7 M101,288.8h9.3 M90.4,278.6h5.4 M81.6,316.4h45.9 M81.6,310.3h45.9 M81.6,304h45.9 M114.5,278.6
		h10.8 M101,278.6h9.3 M114.3,267.6h5.5 M100.4,267.6h9.3 M114.3,246h5.5 M100.4,246h9.3 M90.4,256.8h5.4 M114.3,256.8h5.5
		 M100.4,256.8h9.3 M126.4,235.2h13.7 M62.5,246h4.9 M399,122.1h4.9 M266.1,101.6h20.4 M298.5,101.6h4.9 M362.4,110.9h4.9
		 M389,206.4h18.8 M72.6,144.3h18.8 M89.7,288.7h5.5 M81.9,267.6h14.2 M73.3,246H96 M409.8,122.1h18.8 M381.2,95.6H400 M450.9,219.5
		h5.3 M375.9,152.9h5.3 M167.9,65.8h9.2 M167.9,75.8h26.9 M167.9,80.8h9.2 M277.9,132.4H295 M103.6,164.5h23.9 M208.8,65.8h23.9
		 M402.1,219.5h43.6"/>
	<polyline class="st0" points="119.9,297.2 119.9,235.1 89.7,235.1 89.7,297.2 	"/>
	<line class="st2" x1="99.8" y1="235.5" x2="99.8" y2="297.2"/>
	<line class="st1" x1="95.9" y1="297.2" x2="95.9" y2="328"/>
	<line class="st2" x1="110.3" y1="235.5" x2="110.3" y2="297.2"/>
	<path class="st1" d="M167.9,235v92.3 M149.4,317v10.3 M114.1,297.2V328"/>
	<path class="st1" d="M284.1,317h-93.2 M266.1,306.8h-58.3 M256.4,296.5h-38.9 M256.4,286.2h-38.8 M256.4,276h-38.8 M266.1,265.7
		h-57.4 M266.1,255.5h-57.4 M266.1,245.2h-57.4 M266.1,235h-57.4 M266.1,224.7h-57.4 M266.1,214.4h-57.4 M275.9,193.9h-77.7
		 M275.8,183.7H198 M297.5,173.4H190.8 M284.1,163.2h-93.2 M177.1,317h-36.6 M177.1,306.8h-36.6 M177.1,296.5h-27.6 M177.1,286.2
		h-27.6 M177.1,276h-27.6 M177.1,265.7h-27.6 M183,255.5h-42.6 M297.5,245.2h-9.7 M177.1,245.2h-36.6 M177.1,235h-36.6 M290.1,224.7
		h-6 M177.1,224.7h-36.6 M189.8,214.4H183 M177.1,214.4h-36.6 M266.1,204.2h-58.3 M177.1,204.2h-36.7 M177.1,193.9h-36.6
		 M177.1,183.7h-36.6 M181.8,173.4h-41.4 M177.1,163.2h-36.6 M167.9,152.9h-27.5 M167.9,142.6h-40.3 M167.9,132.4h-27.5 M351.4,317
		h-53.9 M351.4,306.8h-53.9 M351.4,296.5h-53.9 M351.4,286.2h-38.8 M297.5,276h-6.8 M351.4,276h-38.8 M351.4,265.7h-38.8
		 M351.4,255.5h-53.9 M351.4,245.2h-53.9 M367.3,235h-54.7 M351.4,224.7h-38.8 M351.4,214.4h-38.8 M351.4,204.2h-53.9 M351.4,193.9
		h-38.8 M360.8,183.7h-48.1 M351.4,173.4h-38.8 M351.4,163.2h-46.5 M370.6,152.9h-58 M351.4,142.6h-38.8 M351.4,132.4h-29.1
		 M357.2,122.1h-34.8 M202.5,122.1h-25.4 M167.9,122.1h-27.5 M167.9,111.9h-27.5 M167.9,101.6h-27.5 M167.9,91.4h-45.4 M177.1,81.1
		h-36.6 M177.1,70.8h-36.6"/>
	<path class="st1" d="M237,286.2v20.5 M246.7,148v157.6 M246.7,317v11 M227.3,148v157.6 M227.3,317v11 M158.6,60.6v20.5 M158.6,91.4
		v92.1 M158.6,193.9v30.8 M167.9,60.6v123.1 M167.9,193.9v30.8 M158.6,235v82 M275.8,148v117.7h-9.7 M266.1,148v180 M256.4,148v169
		 M341.7,110.9V328 M332,110.9v195.8 M322.3,110.9V328 M312.6,193.9v112.8 M217.5,148v169 M207.8,148v180 M198.1,148v117.7h10.6
		 M149.4,60.6v246.2"/>
	<line class="st2" x1="400.9" y1="276.3" x2="400.9" y2="316.6"/>
	<path class="st1" d="M425.5,275.8V328 M376.7,275.8V328"/>
	<polyline class="st3" points="385.6,317.2 385.6,282.8 415.9,282.8 415.9,316.5 	"/>
	<path class="st1" d="M389.1,275.8V328 M412.5,275.8V328"/>
	<polyline class="st0" points="437.6,282.8 434.4,282.8 434.4,316.5 	"/>
	<line class="st0" x1="364.9" y1="311.3" x2="437.4" y2="311.3"/>
	<line class="st0" x1="364.9" y1="301.3" x2="437.4" y2="301.3"/>
	<line class="st0" x1="364.9" y1="286.2" x2="437.4" y2="286.2"/>
	<polyline class="st0" points="364.6,282.8 367.8,282.8 367.8,316.5 	"/>
	<g class="st4">
		<path class="st5" d="M87.7,198.4V193h-1.5v-1h0.1c1,0,1.6-0.4,1.8-1.2h1.1v7.6H87.7z"/>
	</g>
	<g class="st4">
		<path class="st5" d="M94.9,192.1h-2.8l-0.2,1.7h0c0.3-0.4,0.7-0.6,1.4-0.6c1.5,0,1.8,1.2,1.8,2.4c0,1.7-0.5,2.8-2.4,2.8
			c-1.9,0-2.2-1.3-2.2-2.1v-0.2H92c0,0.5,0.1,1.2,0.7,1.2c0.6,0,0.9-0.5,0.9-1.5c0-1.2-0.2-1.6-0.9-1.6c-0.4,0-0.7,0.3-0.7,0.7h-1.4
			l0.3-4.1h3.9V192.1z"/>
	</g>
	<g class="st4">
		<path class="st5" d="M98.2,190.7h1.5l0.8,5.6h0l0.9-5.6h1.5l0.9,5.6h0l0.8-5.6h1.5l-1.4,7.6H103l-0.9-5.5h0l-0.9,5.5h-1.7
			L98.2,190.7z"/>
	</g>
	<g class="st4">
		<path class="st5" d="M107.9,190.7h1.9l2,7.6h-1.6l-0.4-1.6h-2l-0.4,1.6h-1.6L107.9,190.7z M108.1,195.5h1.5l-0.7-3.4h0
			L108.1,195.5z"/>
	</g>
	<g class="st4">
		<path class="st5" d="M114.2,190.7l1.9,5.2h0v-5.2h1.4v7.6h-1.7l-1.9-5.3h0v5.3h-1.4v-7.6H114.2z"/>
	</g>
	<g class="st4">
		<path class="st5" d="M121.9,193c0-0.6-0.3-1.3-0.9-1.3c-0.7,0-1,0.8-1,2.7c0,1.8,0.2,3,1.1,3c0.4,0,0.9-0.4,0.9-1.2v-0.8h-1v-1.1
			h2.5v4.1h-1.1v-0.7h0c-0.4,0.6-0.9,0.9-1.6,0.9c-1.9,0-2.3-1.4-2.3-4c0-2.6,0.6-3.9,2.6-3.9c1.7,0,2.4,0.9,2.4,2.4H121.9z"/>
	</g>
	<g class="st4">
		<path class="st5" d="M85.4,204.8c0-1.1-0.2-1.6-0.9-1.6c-0.8,0-1,0.8-1,2.9c0,2.3,0.3,2.7,1,2.7c0.6,0,1-0.3,1-1.9H87
			c0,1.6-0.4,3.1-2.4,3.1c-2.3,0-2.6-1.6-2.6-4s0.3-4,2.6-4c2.2,0,2.4,1.6,2.4,2.7H85.4z"/>
		<path class="st5" d="M87.9,202.2h1.5v2.9h1.8v-2.9h1.5v7.6h-1.5v-3.4h-1.8v3.4h-1.5V202.2z"/>
	</g>
	<g class="st4">
		<path class="st5" d="M93.8,209.8v-7.6h1.5v7.6H93.8z"/>
	</g>
	<g class="st4">
		<path class="st5" d="M97.9,202.2v5.3c0,0.8,0.2,1.3,0.9,1.3s0.9-0.6,0.9-1.3v-5.3h1.5v5.3c0,1.9-1.2,2.5-2.4,2.5s-2.4-0.4-2.4-2.5
			v-5.3H97.9z"/>
	</g>
	<g class="st4">
		<path class="st5" d="M104.8,202.2h2.8c1.3,0,2,0.7,2,2c0,1-0.4,1.7-1.3,1.9v0c1,0.1,1.2,0.7,1.2,2.3c0,0.8,0.1,1.2,0.3,1.4v0.1
			h-1.7c-0.1-0.2-0.2-0.5-0.2-0.8l0-1.5c0-0.6-0.3-1-0.9-1h-0.8v3.2h-1.5V202.2z M106.3,205.6h0.6c0.7,0,1.2-0.3,1.2-1.1
			c0-0.7-0.4-1.1-1.1-1.1h-0.7V205.6z"/>
	</g>
	<g class="st4">
		<path class="st5" d="M113,202.1c2.3,0,2.6,1.6,2.6,4s-0.3,4-2.6,4c-2.3,0-2.6-1.6-2.6-4S110.7,202.1,113,202.1z M113,208.9
			c0.9,0,1.1-0.8,1.1-2.8c0-2-0.1-2.8-1.1-2.8c-0.9,0-1.1,0.8-1.1,2.8C111.9,208.1,112.1,208.9,113,208.9z"/>
	</g>
	<g class="st4">
		<path class="st5" d="M118,202.2h1.9l2,7.6h-1.6l-0.4-1.6h-2l-0.4,1.6h-1.6L118,202.2z M118.2,207h1.5l-0.7-3.4h0L118.2,207z"/>
	</g>
	<g class="st4">
		<path class="st5" d="M122.5,202.2h2.5c2.1,0,2.5,1.5,2.5,3.7c0,2.7-0.6,3.9-2.6,3.9h-2.4V202.2z M124.1,208.7h0.7
			c1.1,0,1.3-0.7,1.3-2.7c0-1.7-0.1-2.6-1.3-2.6h-0.7V208.7z"/>
	</g>
	<g>
		<g class="st4">
			<path class="st5" d="M86.6,215.8c0,0.1-0.1,0.1-0.2,0.1c-0.1,0.4-0.2,0.7-0.3,1.1h4.8v0.8h-5c-0.6,1.8-1.5,3.2-2.7,4.1
				c-0.1-0.2-0.4-0.5-0.6-0.6c1.1-0.8,1.9-2,2.4-3.5h-2.3V217h2.5c0.1-0.5,0.2-1,0.3-1.5L86.6,215.8z M83.8,215.5v1.2h-0.8v-2h3.4
				v-1l1.1,0.1c0,0.1-0.1,0.1-0.2,0.2v0.8h3.4v2h-0.9v-1.2H83.8z M87.8,218.5c0,0.1-0.1,0.1-0.2,0.1c-0.2,0.7-0.6,1.6-1,2.3
				c0.8,0,1.7-0.1,2.6-0.1c-0.3-0.4-0.6-0.8-1-1.2l0.7-0.4c0.7,0.7,1.5,1.7,1.8,2.4l-0.7,0.5c-0.1-0.2-0.2-0.4-0.3-0.6
				c-1.7,0.1-3.4,0.2-4.6,0.3c0,0.1-0.1,0.1-0.1,0.1l-0.4-1l1.1,0c0.4-0.8,0.8-1.9,1.1-2.8L87.8,218.5z"/>
			<path class="st5" d="M93.5,220.3c-0.2,0.7-0.6,1.4-1.1,1.9l-0.8-0.3c0.4-0.4,0.8-1.1,1-1.7L93.5,220.3z M92.8,219.1v0.5H92V214
				h2.7v5.1H92.8z M94,214.8h-1.2v1.4H94V214.8z M92.8,218.4H94v-1.4h-1.2V218.4z M94.5,222c0-0.4-0.1-1.2-0.2-1.7l0.8-0.1
				c0.1,0.5,0.2,1.2,0.2,1.7L94.5,222z M99.7,214.3c-0.1,2.3-0.3,2.4-1.4,2.4c-0.2,0-0.4,0-0.5,0c0-0.2-0.1-0.5-0.2-0.7
				c0.4,0,0.7,0,0.9,0c0.1,0,0.2,0,0.3-0.1c0.1-0.1,0.2-0.4,0.2-1.1h-1.4c-0.2,1-0.6,1.8-2.1,2.2c-0.1-0.2-0.3-0.5-0.5-0.6
				c1.1-0.3,1.5-0.8,1.7-1.6h-1.3V214H99l0.2,0l0.5,0.1L99.7,214.3z M99.4,217v2.6h-3.9V217H99.4z M96.7,222.1
				c-0.1-0.4-0.3-1.2-0.5-1.7l0.8-0.1c0.2,0.5,0.5,1.2,0.6,1.7L96.7,222.1z M98.6,219v-1.2h-2.3v1.2H98.6z M99.1,222.1
				c-0.2-0.5-0.7-1.3-1.2-1.9l0.8-0.3c0.4,0.6,1,1.3,1.2,1.8L99.1,222.1z"/>
			<path class="st5" d="M102.7,217.2v2.9c0.6,1,1.9,1,3.3,1c1,0,2.3,0,3.1-0.1c-0.1,0.2-0.2,0.6-0.3,0.9c-0.6,0-1.5,0-2.4,0
				c-2.1,0-3.2,0-4.1-1.1c-0.4,0.4-0.9,0.8-1.2,1c0,0.1,0,0.1-0.1,0.2l-0.5-0.9c0.4-0.3,0.9-0.6,1.3-0.9V218h-1.2v-0.8H102.7z
				 M101.3,213.9c0.6,0.4,1.3,1,1.6,1.4l-0.7,0.6c-0.3-0.4-1-1-1.5-1.5L101.3,213.9z M103.8,216.3h1.4c0.1-0.2,0.1-0.4,0.1-0.7h-2.3
				v-0.7h1.5c-0.1-0.3-0.4-0.7-0.6-0.9l0.7-0.3c0.3,0.3,0.6,0.8,0.7,1.1l-0.3,0.1h1.6l-0.2-0.1c0.2-0.3,0.5-0.8,0.6-1.2l1,0.3
				c0,0.1-0.1,0.1-0.2,0.1c-0.2,0.3-0.4,0.6-0.6,0.9h1.7v0.7h-2.6c-0.1,0.2-0.2,0.4-0.2,0.7h2.1v4.5h-0.8v-0.3h-2.6v0.3h-0.8V216.3z
				 M107.3,217.5v-0.6h-2.6v0.6H107.3z M104.6,218v0.6h2.6V218H104.6z M104.6,219.8h2.6v-0.6h-2.6V219.8z"/>
			<path class="st5" d="M111.6,221.3v-5.8h0l-1.1,0.6l-0.2-0.8l1.5-0.8h0.9v6.8H111.6z"/>
			<path class="st5" d="M118.7,214.5v0.9h-2.4l-0.2,1.6c0.1,0,0.3,0,0.5,0c1.2,0,2.3,0.7,2.3,2.1c0,1.3-1,2.3-2.5,2.3
				c-0.7,0-1.3-0.2-1.6-0.4l0.2-0.8c0.3,0.2,0.8,0.3,1.3,0.3c0.8,0,1.5-0.5,1.5-1.4c0-0.9-0.6-1.4-1.8-1.4c-0.3,0-0.6,0-0.8,0.1
				l0.4-3.3H118.7z"/>
			<path class="st5" d="M122.4,218.6l0.4,0.1c0,0.1,0,0.2,0,0.2c-0.1,1.9-0.3,2.7-0.5,2.9c-0.2,0.2-0.4,0.3-1.1,0.3
				c-0.2,0-0.3,0-0.5,0c0-0.2-0.1-0.5-0.2-0.7c0.4,0,0.7,0,0.9,0c0.1,0,0.2,0,0.3-0.1c0.2-0.2,0.3-0.7,0.4-2h-1.1
				c0,0.2-0.1,0.4-0.1,0.5c-0.7-0.1-0.7-0.1-0.8-0.1c0.1-0.5,0.3-1.2,0.4-1.8h-0.7v-0.8h3.5v0.8h-2c0,0.2-0.1,0.5-0.1,0.7h1.1
				L122.4,218.6z M122.8,214v2.6h-2.7V214H122.8z M122,215.9v-1.2h-1.1v1.2H122z M124.2,216.1v1.7c0,1.3-0.1,3.1-1,4.4
				c-0.1-0.1-0.5-0.4-0.6-0.5c0.8-1.1,0.9-2.7,0.9-3.9v-2.3h1.8v-1.8l1,0.1c0,0.1-0.1,0.1-0.2,0.1v0.4h1.8v0.7H126v0.5h2.2
				c0,0.1-0.1,1.2-0.3,1.8l-0.7-0.2c0-0.2,0.1-0.6,0.1-0.9H124.2z M125.7,219c0,0.1-0.1,0.1-0.2,0.1c-0.1,1.1-0.3,2.3-1.3,3
				c-0.1-0.2-0.3-0.4-0.5-0.6c0.8-0.6,1-1.6,1-2.7L125.7,219z M124.4,216.9l0.9-0.1v-0.7l1,0.1c0,0.1-0.1,0.1-0.2,0.1v0.5l1-0.1
				l0.1,0.6l-1,0.1v0.3c0,0.2,0,0.2,0.3,0.2h0.8c0.2,0,0.2-0.1,0.3-0.5c0.2,0.1,0.4,0.2,0.6,0.2c-0.1,0.7-0.3,0.9-0.8,0.9h-1
				c-0.9,0-0.9-0.3-0.9-1.1l-0.8,0.1L124.4,216.9z M126.9,221c0,0.3,0,0.3,0.2,0.3c0.5,0,0.5,0,0.6-0.2c0-0.1,0-0.4,0-0.8
				c0.1,0.1,0.4,0.2,0.6,0.3c0,0.4,0,0.8-0.1,0.9c-0.1,0.3-0.4,0.4-0.8,0.4h-0.5c-0.8,0-0.8-0.5-0.8-1v-2.2l1,0.1
				c0,0.1-0.1,0.1-0.2,0.1V221z"/>
		</g>
	</g>
	<g class="st4">
		<path class="st5" d="M332.2,55.5c0-0.6-0.2-0.9-0.7-0.9c-0.8,0-0.9,0.8-0.9,1.9v0.4h0c0.3-0.4,0.8-0.7,1.4-0.7
			c1.3,0,1.8,1,1.8,2.4c0,1.7-0.8,2.7-2.4,2.7c-2.1,0-2.4-1.7-2.4-3.5c0-2.1,0-4.2,2.5-4.2c1.1,0,2.1,0.5,2.1,1.9H332.2z
			 M331.4,60.2c0.7,0,0.8-0.6,0.8-1.5c0-1-0.2-1.4-0.8-1.4c-0.6,0-0.8,0.4-0.8,1.4C330.6,59.6,330.7,60.2,331.4,60.2z"/>
	</g>
	<g class="st4">
		<path class="st5" d="M338.7,54.9h-2.8l-0.2,1.7h0c0.3-0.4,0.7-0.6,1.4-0.6c1.5,0,1.8,1.2,1.8,2.4c0,1.7-0.5,2.8-2.4,2.8
			c-1.9,0-2.2-1.3-2.2-2.1v-0.2h1.5c0,0.5,0.1,1.2,0.7,1.2c0.6,0,0.9-0.5,0.9-1.5c0-1.2-0.2-1.6-0.9-1.6c-0.4,0-0.7,0.3-0.7,0.7
			h-1.4l0.3-4.1h3.9V54.9z"/>
	</g>
	<g class="st4">
		<path class="st5" d="M344,54.9h-2.8l-0.2,1.7h0c0.3-0.4,0.7-0.6,1.4-0.6c1.5,0,1.8,1.2,1.8,2.4c0,1.7-0.5,2.8-2.4,2.8
			c-1.9,0-2.2-1.3-2.2-2.1v-0.2h1.5c0,0.5,0.1,1.2,0.7,1.2c0.6,0,0.9-0.5,0.9-1.5c0-1.2-0.2-1.6-0.9-1.6c-0.4,0-0.7,0.3-0.7,0.7
			h-1.4l0.3-4.1h3.9V54.9z"/>
	</g>
	<g class="st4">
		<path class="st5" d="M321.5,65l1.9,5.2h0V65h1.4v7.6H323l-1.9-5.3h0v5.3h-1.4V65H321.5z"/>
	</g>
	<g class="st4">
		<path class="st5" d="M327.4,65h1.9l2,7.6h-1.6l-0.4-1.6h-2l-0.4,1.6h-1.6L327.4,65z M327.6,69.7h1.5l-0.7-3.4h0L327.6,69.7z"/>
	</g>
	<g class="st4">
		<path class="st5" d="M335.8,65v1.3h-1.7v6.4h-1.5v-6.4h-1.7V65H335.8z"/>
	</g>
	<g class="st4">
		<path class="st5" d="M336.5,65h1.5v2.9h1.8V65h1.5v7.6h-1.5v-3.4h-1.8v3.4h-1.5V65z"/>
	</g>
	<g class="st4">
		<path class="st5" d="M344,65h1.9l2,7.6h-1.6L346,71h-2l-0.4,1.6H342L344,65z M344.2,69.7h1.5l-0.7-3.4h0L344.2,69.7z"/>
	</g>
	<g class="st4">
		<path class="st5" d="M350.4,65l1.9,5.2h0V65h1.4v7.6h-1.7l-1.9-5.3h0v5.3h-1.4V65H350.4z"/>
	</g>
	<g class="st4">
		<path class="st5" d="M325.3,76.5h2.8c1.3,0,2,0.7,2,2c0,1-0.4,1.7-1.3,1.9v0c1,0.1,1.2,0.7,1.2,2.3c0,0.8,0.1,1.2,0.3,1.4v0.1
			h-1.7c-0.1-0.2-0.2-0.5-0.2-0.8l0-1.5c0-0.6-0.3-1-0.9-1h-0.8v3.2h-1.5V76.5z M326.9,79.8h0.6c0.7,0,1.2-0.3,1.2-1.1
			c0-0.7-0.4-1.1-1.1-1.1h-0.7V79.8z"/>
	</g>
	<g class="st4">
		<path class="st5" d="M333.6,76.3c2.3,0,2.6,1.6,2.6,4s-0.3,4-2.6,4s-2.6-1.6-2.6-4S331.3,76.3,333.6,76.3z M333.6,83.1
			c0.9,0,1.1-0.8,1.1-2.8c0-2-0.1-2.8-1.1-2.8s-1.1,0.8-1.1,2.8C332.5,82.3,332.6,83.1,333.6,83.1z"/>
	</g>
	<g class="st4">
		<path class="st5" d="M338.5,76.5h1.9l2,7.6h-1.6l-0.4-1.6h-2l-0.4,1.6h-1.6L338.5,76.5z M338.7,81.2h1.5l-0.7-3.4h0L338.7,81.2z"
			/>
	</g>
	<g class="st4">
		<path class="st5" d="M343.1,76.5h2.5c2.1,0,2.5,1.5,2.5,3.7c0,2.7-0.6,3.9-2.6,3.9h-2.4V76.5z M344.6,83h0.7
			c1.1,0,1.3-0.7,1.3-2.7c0-1.7-0.1-2.6-1.3-2.6h-0.7V83z"/>
	</g>
	<g class="st4">
		<path class="st5" d="M317.8,89.7c0.6,0.4,1.3,1,1.6,1.4l-0.5,0.3v4.7c0,0.7-0.3,0.9-1.5,0.9c0-0.2-0.1-0.5-0.2-0.7
			c0.4,0,0.7,0,0.8,0c0.1,0,0.1,0,0.1-0.1v-0.8l-0.3,0.3c-0.1-0.1-0.2-0.2-0.4-0.4c-0.1,0.3-0.3,0.5-0.5,0.7
			c-0.1-0.1-0.2-0.2-0.3-0.2c0.2-0.2,0.3-0.4,0.5-0.7c-0.2-0.1-0.3-0.2-0.5-0.3v2.2h-0.7v-1.6l-0.2,0.4c-0.1-0.1-0.2-0.2-0.4-0.3
			c-0.1,0.3-0.3,0.5-0.4,0.7c-0.1-0.1-0.2-0.2-0.4-0.2c0.2-0.2,0.3-0.5,0.4-0.8c-0.1-0.1-0.3-0.2-0.4-0.3l0.2-0.3l0.4,0.2
			c0.1-0.2,0.1-0.4,0.2-0.6l0.6,0.2c0,0.1-0.1,0.1-0.2,0.1c-0.1,0.2-0.1,0.4-0.2,0.6c0.2,0.1,0.3,0.2,0.4,0.4v-3.4h-1.4V97h-0.7
			v-5.5l-0.1,0c-0.1-0.1-0.4-0.3-0.5-0.4v0.8h-0.8v-0.2h-0.8l-0.1,1.1h1.1l0.2,0l0.4,0l0,0.3c-0.1,2.4-0.2,3.2-0.4,3.5
			c-0.2,0.3-0.5,0.3-1.1,0.3c-0.2,0-0.4,0-0.6,0c0-0.2-0.1-0.6-0.2-0.8c0.4,0,0.8,0,1,0c0.1,0,0.2,0,0.3-0.1
			c0.1-0.2,0.2-0.8,0.3-2.5h-1l0,0.3l-0.7-0.1c0.1-0.8,0.2-2,0.2-2.9h1.5v-1.3h-1.6v-0.8h2.4v2.2c0.5-0.3,1.1-0.8,1.4-1.3l0.8,0.3
			c0,0.1-0.1,0.1-0.2,0.1c-0.2,0.3-0.6,0.7-0.9,1h1.6v-1.5h-2.3v-0.8h5.6v0.8h-2.5v1.5h1.6c-0.4-0.4-0.8-0.7-1.3-1L317.8,89.7z
			 M316,92.3c0,0.1-0.1,0.1-0.2,0.1c-0.1,0.2-0.1,0.4-0.2,0.5c0.2,0.1,0.3,0.2,0.4,0.3l-0.3,0.4c-0.1-0.1-0.2-0.2-0.3-0.3
			c-0.1,0.2-0.2,0.4-0.4,0.6c-0.1-0.1-0.2-0.2-0.3-0.2c0.1-0.2,0.3-0.4,0.4-0.6c-0.2-0.1-0.3-0.2-0.5-0.3c0.1-0.2,0.2-0.2,0.3-0.3
			l0.4,0.2c0.1-0.2,0.1-0.4,0.2-0.5L316,92.3z M317,94.4c0.1,0.1,0.3,0.2,0.4,0.3c0.1-0.2,0.1-0.4,0.2-0.6l0.6,0.2
			c0,0.1-0.1,0.1-0.2,0.1c-0.1,0.2-0.1,0.4-0.2,0.6c0.2,0.1,0.3,0.3,0.4,0.4v-2l-0.3,0.4c-0.1-0.1-0.2-0.2-0.4-0.3
			c-0.1,0.2-0.3,0.5-0.4,0.6c-0.1-0.1-0.2-0.2-0.3-0.2c0.1-0.2,0.3-0.4,0.4-0.7c-0.2-0.1-0.3-0.2-0.5-0.3l0.3-0.3
			c0.1,0.1,0.3,0.1,0.4,0.2c0.1-0.2,0.1-0.4,0.2-0.5l0.6,0.2c0,0.1-0.1,0.1-0.2,0.1c-0.1,0.2-0.1,0.4-0.2,0.6
			c0.2,0.1,0.3,0.2,0.4,0.3v-1.4h-1.5v2.8L317,94.4z"/>
	</g>
	<g class="st4">
		<path class="st5" d="M324.2,94.4V95c-0.6,0.1-1.2,0.1-1.8,0.2v1c0,0.8-0.3,0.8-1.6,0.8c0-0.2-0.1-0.5-0.2-0.7c0.4,0,0.8,0,0.9,0
			c0.1,0,0.1,0,0.1-0.1v-0.8c-0.6,0.1-1,0.1-1.4,0.1c0,0.1-0.1,0.1-0.2,0.1l-0.2-0.9c0.5,0,1.1-0.1,1.8-0.1V94l0.3,0
			c0.2-0.1,0.4-0.3,0.6-0.5h-2.4v-0.7h3.1l0.1,0l0.6,0.4c0,0-0.1,0.1-0.2,0.1c-0.3,0.3-0.8,0.8-1.3,1.1v0.1L324.2,94.4z M324.1,89.4
			v0.7h-4.4v-0.7h1.8v-0.9l1,0.1c0,0.1-0.1,0.1-0.2,0.2v0.7H324.1z M323.6,92.5h-3.3v-1.9h3.3V92.5z M321.1,91.2v0.7h1.7v-0.7H321.1
			z M328.2,91h-0.5c-0.2,1.4-0.6,2.6-1.2,3.6c0.4,0.7,1,1.3,1.8,1.7c-0.2,0.2-0.5,0.5-0.6,0.8c-0.7-0.4-1.2-1-1.7-1.7
			c-0.5,0.7-1.2,1.3-2.1,1.7c-0.1-0.2-0.4-0.5-0.6-0.7c0.9-0.4,1.6-1,2.2-1.8c-0.3-0.7-0.6-1.4-0.7-2.1c-0.2,0.3-0.3,0.6-0.5,0.9
			c-0.1-0.2-0.4-0.5-0.6-0.7c0.7-0.9,1.1-2.5,1.4-4l1.1,0.2c0,0.1-0.1,0.1-0.2,0.1c-0.1,0.4-0.2,0.9-0.3,1.3h2.6V91z M325.3,91
			c0,0,0,0.1,0,0.1c0.1,0.8,0.4,1.7,0.7,2.5c0.4-0.8,0.6-1.6,0.8-2.6H325.3z"/>
	</g>
	<g class="st4">
		<path class="st5" d="M330.8,92.1V95c0.6,1,1.9,1,3.3,1c1,0,2.3,0,3.1-0.1c-0.1,0.2-0.2,0.6-0.3,0.9c-0.6,0-1.5,0-2.4,0
			c-2.1,0-3.2,0-4.1-1.1c-0.4,0.4-0.9,0.8-1.2,1c0,0.1,0,0.1-0.1,0.2l-0.5-0.9c0.4-0.3,0.9-0.6,1.3-0.9v-2.2h-1.2v-0.8H330.8z
			 M329.4,88.7c0.6,0.4,1.3,1,1.6,1.4l-0.7,0.6c-0.3-0.4-1-1-1.5-1.5L329.4,88.7z M331.9,91.1h1.4c0.1-0.2,0.1-0.4,0.1-0.7h-2.3
			v-0.7h1.5c-0.1-0.3-0.4-0.7-0.6-0.9l0.7-0.3c0.3,0.3,0.6,0.8,0.7,1.1l-0.3,0.1h1.6l-0.2-0.1c0.2-0.3,0.5-0.8,0.6-1.2l1,0.3
			c0,0.1-0.1,0.1-0.2,0.1c-0.2,0.3-0.4,0.6-0.6,0.9h1.7v0.7h-2.6c-0.1,0.2-0.2,0.4-0.2,0.7h2.1v4.5h-0.8v-0.3h-2.6v0.3h-0.8V91.1z
			 M335.3,92.3v-0.6h-2.6v0.6H335.3z M332.7,92.9v0.6h2.6v-0.6H332.7z M332.7,94.7h2.6v-0.6h-2.6V94.7z"/>
		<path class="st5" d="M338.8,92.4c0.3-0.4,0.8-0.7,1.5-0.7c1.1,0,1.9,0.8,1.9,2.2c0,1.3-0.8,2.4-2.2,2.4c-1.4,0-2.3-1.2-2.3-2.9
			c0-1.3,0.4-2.4,1.1-3.1c0.7-0.7,1.8-1.1,2.7-1.1l0,0.8C339.6,90.1,338.9,91.4,338.8,92.4L338.8,92.4z M341.1,94
			c0-0.9-0.5-1.5-1.2-1.5c-0.6,0-1.2,0.6-1.2,1.2c0,1.1,0.5,1.8,1.3,1.8C340.7,95.5,341.1,94.9,341.1,94z"/>
	</g>
	<g class="st4">
		<path class="st5" d="M346.5,88.8v0.9h-2.4l-0.2,1.6c0.1,0,0.3,0,0.5,0c1.2,0,2.3,0.7,2.3,2.1c0,1.3-1,2.3-2.5,2.3
			c-0.7,0-1.3-0.2-1.6-0.4l0.2-0.8c0.3,0.2,0.8,0.3,1.3,0.3c0.8,0,1.5-0.5,1.5-1.4c0-0.9-0.6-1.4-1.8-1.4c-0.3,0-0.6,0-0.8,0.1
			l0.4-3.3H346.5z"/>
	</g>
	<g class="st4">
		<path class="st5" d="M351.3,88.8v0.9h-2.4l-0.2,1.6c0.1,0,0.3,0,0.5,0c1.2,0,2.3,0.7,2.3,2.1c0,1.3-1,2.3-2.5,2.3
			c-0.7,0-1.3-0.2-1.6-0.4l0.2-0.8c0.3,0.2,0.8,0.3,1.3,0.3c0.8,0,1.5-0.5,1.5-1.4c0-0.9-0.6-1.4-1.8-1.4c-0.3,0-0.6,0-0.8,0.1
			l0.4-3.3H351.3z"/>
	</g>
	<g class="st4">
		<path class="st5" d="M354.7,93.5l0.4,0.1c0,0.1,0,0.2,0,0.2c-0.1,1.9-0.3,2.7-0.5,2.9c-0.2,0.2-0.4,0.3-1.1,0.3
			c-0.2,0-0.3,0-0.5,0c0-0.2-0.1-0.5-0.2-0.7c0.4,0,0.7,0,0.9,0c0.1,0,0.2,0,0.3-0.1c0.2-0.2,0.3-0.7,0.4-2h-1.1
			c0,0.2-0.1,0.4-0.1,0.5c-0.7-0.1-0.7-0.1-0.8-0.1c0.1-0.5,0.3-1.2,0.4-1.8h-0.7V92h3.5v0.8h-2c0,0.2-0.1,0.5-0.1,0.7h1.1
			L354.7,93.5z M355.2,88.9v2.6h-2.7v-2.6H355.2z M354.4,90.8v-1.2h-1.1v1.2H354.4z M356.5,91v1.7c0,1.3-0.1,3.1-1,4.4
			c-0.1-0.1-0.5-0.4-0.6-0.5c0.8-1.1,0.9-2.7,0.9-3.9v-2.3h1.8v-1.8l1,0.1c0,0.1-0.1,0.1-0.2,0.1v0.4h1.8v0.7h-1.8v0.5h2.2
			c0,0.1-0.1,1.2-0.3,1.8l-0.7-0.2c0-0.2,0.1-0.6,0.1-0.9H356.5z M358,93.8c0,0.1-0.1,0.1-0.2,0.1c-0.1,1.1-0.3,2.3-1.3,3
			c-0.1-0.2-0.3-0.4-0.5-0.6c0.8-0.6,1-1.6,1-2.7L358,93.8z M356.7,91.8l0.9-0.1V91l1,0.1c0,0.1-0.1,0.1-0.2,0.1v0.5l1-0.1l0.1,0.6
			l-1,0.1v0.3c0,0.2,0,0.2,0.3,0.2h0.8c0.2,0,0.2-0.1,0.3-0.5c0.2,0.1,0.4,0.2,0.6,0.2c-0.1,0.7-0.3,0.9-0.8,0.9h-1
			c-0.9,0-0.9-0.3-0.9-1.1l-0.8,0.1L356.7,91.8z M359.2,95.9c0,0.3,0,0.3,0.2,0.3c0.5,0,0.5,0,0.6-0.2c0-0.1,0-0.4,0-0.8
			c0.1,0.1,0.4,0.2,0.6,0.3c0,0.4,0,0.8-0.1,0.9c-0.1,0.3-0.4,0.4-0.8,0.4h-0.5c-0.8,0-0.8-0.5-0.8-1v-2.2l1,0.1
			c0,0.1-0.1,0.1-0.2,0.1V95.9z"/>
	</g>
	<g class="st4">
		<path class="st5" d="M152.9,3.9c2.3,0,2.6,1.6,2.6,4s-0.3,4-2.6,4c-2.3,0-2.6-1.6-2.6-4S150.5,3.9,152.9,3.9z M152.9,10.6
			c0.9,0,1.1-0.8,1.1-2.8c0-2-0.1-2.8-1.1-2.8c-0.9,0-1.1,0.8-1.1,2.8C151.8,9.9,151.9,10.6,152.9,10.6z"/>
		<path class="st5" d="M158.1,4l1.9,5.2h0V4h1.4v7.6h-1.7l-1.9-5.3h0v5.3h-1.4V4H158.1z"/>
		<path class="st5" d="M166.7,4v1.3H164v1.8h2.6v1.3H164v2h2.8v1.3h-4.4V4H166.7z"/>
	</g>
	<g class="st4">
		<path class="st5" d="M142.7,15.5h2.7c1.6,0,2.1,1.1,2.1,2.3c0,1.6-1,2.3-2.4,2.3h-0.8v3h-1.5V15.5z M144.2,18.9h0.7
			c0.6,0,1-0.4,1-1.1c0-0.7-0.3-1.2-1.1-1.2h-0.6V18.9z"/>
	</g>
	<g class="st4">
		<path class="st5" d="M149.3,15.5h1.9l2,7.6h-1.6l-0.4-1.6h-2l-0.4,1.6h-1.6L149.3,15.5z M149.5,20.2h1.5l-0.7-3.4h0L149.5,20.2z"
			/>
	</g>
	<g class="st4">
		<path class="st5" d="M156.9,18.1c0-1.1-0.2-1.6-0.9-1.6c-0.8,0-1,0.8-1,2.9c0,2.3,0.3,2.7,1,2.7c0.6,0,1-0.3,1-1.9h1.5
			c0,1.6-0.4,3.1-2.4,3.1c-2.3,0-2.6-1.6-2.6-4s0.3-4,2.6-4c2.2,0,2.4,1.6,2.4,2.7H156.9z"/>
	</g>
	<g class="st4">
		<path class="st5" d="M159.4,23.1v-7.6h1.5v7.6H159.4z"/>
	</g>
	<g class="st4">
		<path class="st5" d="M162.1,15.5h4.3v1.3h-2.7v1.8h2.6v1.3h-2.6v3.3h-1.5V15.5z"/>
	</g>
	<g class="st4">
		<path class="st5" d="M167,23.1v-7.6h1.5v7.6H167z"/>
	</g>
	<g class="st4">
		<path class="st5" d="M172.9,18.1c0-1.1-0.2-1.6-0.9-1.6c-0.8,0-1,0.8-1,2.9c0,2.3,0.3,2.7,1,2.7c0.6,0,1-0.3,1-1.9h1.5
			c0,1.6-0.4,3.1-2.4,3.1c-2.3,0-2.6-1.6-2.6-4s0.3-4,2.6-4c2.2,0,2.4,1.6,2.4,2.7H172.9z"/>
	</g>
	<g class="st4">
		<path class="st5" d="M145.7,29.6c0-1.1-0.2-1.6-0.9-1.6c-0.8,0-1,0.8-1,2.9c0,2.3,0.3,2.7,1,2.7c0.6,0,1-0.3,1-1.9h1.5
			c0,1.6-0.4,3.1-2.4,3.1c-2.3,0-2.6-1.6-2.6-4s0.3-4,2.6-4c2.2,0,2.4,1.6,2.4,2.7H145.7z"/>
	</g>
	<g class="st4">
		<path class="st5" d="M152.4,27v1.3h-2.7V30h2.6v1.3h-2.6v2h2.8v1.3h-4.4V27H152.4z"/>
	</g>
	<g class="st4">
		<path class="st5" d="M155,27l1.9,5.2h0V27h1.4v7.6h-1.7l-1.9-5.3h0v5.3h-1.4V27H155z"/>
		<path class="st5" d="M163.8,27v1.3h-1.7v6.4h-1.5v-6.4h-1.7V27H163.8z"/>
	</g>
	<g class="st4">
		<path class="st5" d="M164.5,27h2.8c1.3,0,2,0.7,2,2c0,1-0.4,1.7-1.3,1.9v0c1,0.1,1.2,0.7,1.2,2.3c0,0.8,0.1,1.2,0.3,1.4v0.1H168
			c-0.1-0.2-0.2-0.5-0.2-0.8l0-1.5c0-0.6-0.3-1-0.9-1h-0.8v3.2h-1.5V27z M166.1,30.3h0.6c0.7,0,1.2-0.3,1.2-1.1
			c0-0.7-0.4-1.1-1.1-1.1h-0.7V30.3z"/>
		<path class="st5" d="M174.7,27v1.3H172V30h2.6v1.3H172v2h2.8v1.3h-4.4V27H174.7z"/>
	</g>
	<g>
		<g class="st4">
			<path class="st5" d="M140.7,46.1v-5.8h0l-1.1,0.6l-0.2-0.8l1.5-0.8h0.9v6.8H140.7z"/>
			<path class="st5" d="M149.3,45.7h2.7v0.8h-8.2v-0.8h2.7v-1.5h-1.2v0.3h-0.8V41h2v-1.3h-2.4V39h7.8v0.8h-2.5V41h2.1v3.5h-0.9v-0.3
				h-1.2V45.7z M145.3,43.5h2v2.3h1.2v-2.3h2v-1.7h-2v-2h-1.2v2h-2V43.5z"/>
			<path class="st5" d="M161.1,41.7h-3.3c0.6,2,1.8,3.7,3.6,4.4c-0.2,0.2-0.5,0.5-0.6,0.8c-1.8-0.9-2.9-2.5-3.6-4.7
				c-0.4,1.8-1.4,3.6-3.7,4.7c-0.1-0.2-0.4-0.5-0.7-0.7c2.3-1,3.2-2.7,3.5-4.5H153v-0.9h3.4c0.1-0.8,0.1-1.7,0.1-2.4l1.2,0.1
				c0,0.1-0.1,0.2-0.2,0.2c0,0.6,0,1.3-0.1,2.1h3.8V41.7z M157.6,46.7c-0.4-0.5-1.1-1.3-1.7-1.8l0.7-0.5c0.6,0.5,1.4,1.2,1.8,1.7
				L157.6,46.7z"/>
			<path class="st5" d="M166.4,40h3.3v4.4h-0.9V44h-2.4v2.9h-0.9V44h-2.4v0.5h-0.9V40h3.2v-1.6l1.1,0.1c0,0.1-0.1,0.1-0.2,0.2V40z
				 M163.2,43.1h2.4v-2.2h-2.4V43.1z M166.4,43.1h2.4v-2.2h-2.4V43.1z"/>
			<path class="st5" d="M170.7,45c0.6-0.8,0.9-2.1,1-3.3l0.8,0.2c-0.1,1.2-0.4,2.7-1,3.6L170.7,45z M173.2,41l1.1,0.1
				c0,0.1-0.1,0.1-0.2,0.2v4.3c0,0.4,0.1,0.5,0.6,0.5h1.5c0.5,0,0.6-0.3,0.7-1.8c0.2,0.2,0.6,0.3,0.8,0.4c-0.1,1.7-0.4,2.2-1.4,2.2
				h-1.7c-1.1,0-1.4-0.3-1.4-1.3V41z M176.4,40.8c-0.7-0.5-2-1.2-3.1-1.6l0.6-0.7c1.1,0.4,2.4,1,3.1,1.6L176.4,40.8z M178.6,45.1
				c-0.2-0.9-0.9-2.4-1.6-3.4l0.8-0.4c0.8,1,1.5,2.4,1.7,3.4L178.6,45.1z"/>
		</g>
	</g>
	<g class="st4">
		<path class="st5" d="M495,150.2v4.3h2.6v-4.3h2.2v11.1h-2.2v-4.9H495v4.9h-2.2v-11.1H495z"/>
	</g>
	<g class="st4">
		<path class="st5" d="M503.4,154.7L503.4,154.7l2.9-4.5h2.4l-3,4.8l3.4,6.4h-2.5l-2.3-4.6l-0.8,1.3v3.3h-2.2v-11.1h2.2V154.7z"/>
	</g>
	<g class="st4">
		<path class="st5" d="M513,150.2c0.6,0,1.1,0.1,1.4,0.3c0.4,0.2,0.7,0.4,0.9,0.8c0.2,0.3,0.4,0.7,0.5,1.1c0.1,0.4,0.2,0.8,0.2,1.2
			c0,0.6-0.1,1.1-0.3,1.5c-0.2,0.4-0.4,0.8-0.7,1c-0.3,0.3-0.7,0.5-1.1,0.6c-0.4,0.1-0.9,0.2-1.5,0.2h-1.2v4.4h-2.2v-11.1H513z
			 M512.4,155.3c0.4,0,0.8-0.1,1.1-0.4s0.4-0.7,0.4-1.3c0-0.6-0.1-1-0.4-1.3c-0.2-0.3-0.6-0.4-1.2-0.4h-0.9v3.4H512.4z"/>
	</g>
	<g class="st4">
		<path class="st5" d="M516.7,150.2h2.2v11.1h-2.2V150.2z"/>
	</g>
	<g class="st4">
		<path class="st5" d="M452.2,167.5c0.6,0,1.1,0.1,1.4,0.3s0.7,0.4,0.9,0.8c0.2,0.3,0.4,0.7,0.5,1.1c0.1,0.4,0.2,0.8,0.2,1.2
			c0,0.6-0.1,1.1-0.3,1.5c-0.2,0.4-0.4,0.8-0.7,1c-0.3,0.3-0.7,0.5-1.1,0.6c-0.4,0.1-0.9,0.2-1.5,0.2h-1.2v4.4h-2.2v-11.1H452.2z
			 M451.6,172.5c0.4,0,0.8-0.1,1.1-0.4s0.4-0.7,0.4-1.3c0-0.6-0.1-1-0.4-1.3c-0.2-0.3-0.6-0.4-1.2-0.4h-0.9v3.4H451.6z"/>
		<path class="st5" d="M460.6,167.5c0.9,0,1.7,0.2,2.2,0.7c0.5,0.5,0.8,1.2,0.8,2.2c0,0.7-0.2,1.4-0.5,1.8c-0.3,0.5-0.8,0.8-1.4,0.9
			v0c0.6,0.1,1,0.3,1.2,0.5c0.3,0.3,0.4,0.7,0.5,1.4c0,0.2,0,0.4,0,0.7c0,0.2,0,0.5,0,0.8c0,0.6,0.1,1,0.1,1.4
			c0.1,0.3,0.2,0.5,0.4,0.6v0.1h-2.4c-0.1-0.2-0.2-0.3-0.2-0.5c0-0.2-0.1-0.4-0.1-0.6l-0.1-2.1c0-0.4-0.1-0.8-0.3-1
			c-0.2-0.2-0.5-0.4-1-0.4h-1.2v4.7h-2.2v-11.1H460.6z M459.6,172.3c0.5,0,1-0.1,1.2-0.4c0.3-0.3,0.4-0.7,0.4-1.3
			c0-1-0.5-1.5-1.6-1.5h-1.1v3.2H459.6z"/>
	</g>
	<g class="st4">
		<path class="st5" d="M464,170.7c0.1-0.7,0.2-1.3,0.5-1.8c0.3-0.5,0.6-0.9,1.1-1.2c0.5-0.3,1.2-0.4,2-0.4s1.5,0.1,2,0.4
			c0.5,0.3,0.9,0.7,1.1,1.2c0.3,0.5,0.4,1.1,0.5,1.8s0.1,1.5,0.1,2.3c0,0.9,0,1.6-0.1,2.3s-0.2,1.3-0.5,1.8
			c-0.3,0.5-0.6,0.9-1.1,1.2c-0.5,0.3-1.2,0.4-2,0.4s-1.5-0.1-2-0.4c-0.5-0.3-0.9-0.7-1.1-1.2c-0.3-0.5-0.4-1.1-0.5-1.8
			s-0.1-1.5-0.1-2.3C463.9,172.2,463.9,171.4,464,170.7z M466.2,174.9c0,0.5,0.1,1,0.2,1.3c0.1,0.3,0.3,0.6,0.5,0.7
			c0.2,0.2,0.5,0.2,0.8,0.2c0.3,0,0.6-0.1,0.8-0.2c0.2-0.2,0.4-0.4,0.5-0.7s0.2-0.8,0.2-1.3c0-0.5,0.1-1.2,0.1-1.9s0-1.4-0.1-1.9
			c0-0.5-0.1-0.9-0.2-1.3s-0.3-0.6-0.5-0.7c-0.2-0.2-0.5-0.2-0.8-0.2c-0.3,0-0.6,0.1-0.8,0.2c-0.2,0.2-0.4,0.4-0.5,0.7
			c-0.1,0.3-0.2,0.8-0.2,1.3s-0.1,1.2-0.1,1.9S466.2,174.4,466.2,174.9z"/>
	</g>
	<g class="st4">
		<path class="st5" d="M476.2,167.5c0.6,0,1.1,0.1,1.4,0.3s0.7,0.4,0.9,0.8c0.2,0.3,0.4,0.7,0.5,1.1c0.1,0.4,0.2,0.8,0.2,1.2
			c0,0.6-0.1,1.1-0.3,1.5c-0.2,0.4-0.4,0.8-0.7,1c-0.3,0.3-0.7,0.5-1.1,0.6c-0.4,0.1-0.9,0.2-1.5,0.2h-1.2v4.4h-2.2v-11.1H476.2z
			 M475.6,172.5c0.4,0,0.8-0.1,1.1-0.4s0.4-0.7,0.4-1.3c0-0.6-0.1-1-0.4-1.3c-0.2-0.3-0.6-0.4-1.2-0.4h-0.9v3.4H475.6z"/>
	</g>
	<g class="st4">
		<path class="st5" d="M486.1,169.3h-4v2.6h3.7v1.8h-3.7v3h4.1v1.8h-6.4v-11.1h6.2V169.3z"/>
	</g>
	<g class="st4">
		<path class="st5" d="M491,167.5c0.9,0,1.7,0.2,2.2,0.7c0.5,0.5,0.8,1.2,0.8,2.2c0,0.7-0.2,1.4-0.5,1.8c-0.3,0.5-0.8,0.8-1.4,0.9v0
			c0.6,0.1,1,0.3,1.2,0.5c0.3,0.3,0.4,0.7,0.5,1.4c0,0.2,0,0.4,0,0.7c0,0.2,0,0.5,0,0.8c0,0.6,0.1,1,0.1,1.4
			c0.1,0.3,0.2,0.5,0.4,0.6v0.1h-2.4c-0.1-0.2-0.2-0.3-0.2-0.5c0-0.2-0.1-0.4-0.1-0.6l-0.1-2.1c0-0.4-0.1-0.8-0.3-1
			c-0.2-0.2-0.5-0.4-1-0.4h-1.2v4.7h-2.2v-11.1H491z M490,172.3c0.5,0,1-0.1,1.2-0.4c0.3-0.3,0.4-0.7,0.4-1.3c0-1-0.5-1.5-1.6-1.5
			h-1.1v3.2H490z"/>
	</g>
	<g class="st4">
		<path class="st5" d="M501.5,169.3h-2.4v9.3h-2.2v-9.3h-2.4v-1.8h7.1V169.3z"/>
	</g>
	<g class="st4">
		<path class="st5" d="M502.1,167.5h2.2v11.1h-2.2V167.5z"/>
	</g>
	<g class="st4">
		<path class="st5" d="M512,169.3h-4v2.6h3.7v1.8h-3.7v3h4.1v1.8h-6.4v-11.1h6.2V169.3z"/>
	</g>
	<g class="st4">
		<path class="st5" d="M514.4,175.4c0,0.3,0,0.5,0.1,0.7c0,0.2,0.1,0.4,0.2,0.5s0.3,0.3,0.5,0.3c0.2,0.1,0.4,0.1,0.7,0.1
			c0.3,0,0.7-0.1,0.9-0.3c0.3-0.2,0.4-0.6,0.4-1c0-0.2,0-0.5-0.1-0.6c-0.1-0.2-0.2-0.3-0.3-0.5c-0.2-0.1-0.4-0.3-0.6-0.4
			c-0.3-0.1-0.6-0.2-0.9-0.4c-0.5-0.2-0.9-0.3-1.3-0.5c-0.4-0.2-0.7-0.4-0.9-0.7c-0.2-0.3-0.4-0.6-0.5-0.9s-0.2-0.8-0.2-1.2
			c0-1.1,0.3-1.9,0.9-2.5c0.6-0.5,1.5-0.8,2.5-0.8c0.5,0,1,0.1,1.4,0.2s0.8,0.3,1.1,0.5s0.5,0.6,0.7,0.9s0.3,0.8,0.3,1.4v0.3h-2.2
			c0-0.5-0.1-0.9-0.3-1.2c-0.2-0.3-0.5-0.4-0.9-0.4c-0.2,0-0.5,0-0.6,0.1c-0.2,0.1-0.3,0.2-0.4,0.3s-0.2,0.3-0.2,0.4
			s-0.1,0.3-0.1,0.5c0,0.3,0.1,0.6,0.2,0.9c0.1,0.2,0.5,0.5,0.9,0.6l1.7,0.7c0.4,0.2,0.8,0.4,1,0.6s0.5,0.4,0.6,0.7
			c0.2,0.2,0.3,0.5,0.3,0.8c0.1,0.3,0.1,0.6,0.1,0.9c0,1.2-0.3,2-1,2.6c-0.7,0.5-1.6,0.8-2.8,0.8c-1.3,0-2.2-0.3-2.7-0.8
			c-0.5-0.6-0.8-1.3-0.8-2.4v-0.5h2.2V175.4z"/>
	</g>
	<g class="st4">
		<path class="st5" d="M442,186c0.8,0.3,1.8,0.9,2.3,1.4l-0.5,0.7c-0.5-0.4-1.5-1.1-2.3-1.4L442,186z M453.9,187.3h-2.4
			c0.6,1.1,1.6,2.2,2.6,2.7c-0.2,0.2-0.5,0.5-0.6,0.7c-0.7-0.4-1.4-1.1-2-1.9v2.9h-4.2v1.5c0,0.4,0.2,0.4,1,0.4h3
			c0.7,0,0.8-0.2,0.9-1.4c0.2,0.1,0.6,0.3,0.8,0.3c-0.1,1.5-0.4,1.9-1.6,1.9h-3.1c-1.4,0-1.8-0.2-1.8-1.2v-2.3h4.2v-1.5H447v-0.6
			c-0.6,0.8-1.3,1.5-2,2c-0.1-0.1-0.3-0.3-0.4-0.5c-0.6,1.3-1.3,2.7-1.8,3.7c0.1,0.1,0.1,0.1,0.1,0.2c0,0.1,0,0.1,0,0.1l-0.9-0.6
			c0.6-1,1.5-2.8,2.2-4.3l0.7,0.5c0.9-0.6,1.7-1.6,2.3-2.7h-2.4v-0.8h2.4v-1.7h-1.8v-0.8h1.8v-1.7l1.1,0.1c0,0.1-0.1,0.2-0.3,0.2
			v1.4h2.7v-1.7l1.1,0.1c0,0.1-0.1,0.2-0.3,0.2v1.4h2.1v0.8h-2.1v1.7h2.4V187.3z M442.7,182.4c0.8,0.4,1.8,1,2.3,1.5l-0.5,0.7
			c-0.5-0.5-1.4-1.1-2.2-1.5L442.7,182.4z M447.9,187.3c-0.2,0.5-0.5,1-0.8,1.4h4.3c-0.3-0.4-0.6-0.9-0.8-1.4H447.9z M447.8,184.7
			v1.7h2.7v-1.7H447.8z"/>
		<path class="st5" d="M464.1,192.2c0,0.1-0.1,0.1-0.3,0.1c-0.2,0.3-0.6,0.7-0.9,1.1h4v0.7h-12.1v-0.7h3.8c-0.1-0.4-0.4-0.9-0.6-1.2
			l0.7-0.2h-1.9v-2.4h8.2v2.4h-1.5L464.1,192.2z M466.5,188.2v0.7h-11.4v-0.7H466.5z M466.2,182.7c0,0.1-0.1,0.2-0.2,0.2v4.7h-10.2
			v-4.9l1,0.1c0,0.1-0.1,0.2-0.2,0.2v4h1.7v-0.7h-1.3v-0.5h1.3v-0.7h-1.1v-0.5h1.1v-0.6h-1.2v-0.5h1.2v-0.7l0.8,0.1
			c0,0.1-0.1,0.1-0.2,0.2v0.5h1.2v0.5h-1.2v0.6h1.1v0.5h-1.1v0.7h1.3v0.5h-1.3v0.7h1.7v-4.6l1.1,0.1c0,0.1-0.1,0.2-0.2,0.2v4.3h1.7
			v-0.7h-1.3v-0.5h1.3v-0.7h-1.1v-0.5h1.1v-0.6h-1.2v-0.5h1.2v-0.7l0.8,0.1c0,0.1-0.1,0.1-0.2,0.2v0.5h1.2v0.5h-1.2v0.6h1.1v0.5
			h-1.1v0.7h1.3v0.5h-1.3v0.7h1.7v-4.2L466.2,182.7z M457.6,190.1v1.2h6.5v-1.2H457.6z M462,193.4c0.3-0.4,0.8-1,1-1.5h-4.4
			c0.3,0.4,0.6,1,0.7,1.4l-0.2,0.1L462,193.4L462,193.4z"/>
		<path class="st5" d="M472.1,190.6l0.2,0l0.5,0.1l0,0.3c-0.2,2.1-0.4,2.9-0.7,3.2c-0.3,0.3-0.6,0.3-1.2,0.3c-0.4,0-0.9,0-1.5,0
			c0-0.2-0.1-0.5-0.3-0.8c0.7,0.1,1.5,0.1,1.7,0.1c0.3,0,0.4,0,0.5-0.1c0.2-0.2,0.4-0.8,0.5-2.4h-2.5l-0.1,0.4l-0.7-0.1
			c0.2-0.8,0.4-2,0.6-3h2.8V187h-1.9c-0.6,0.4-1.2,0.7-1.8,1c-0.1-0.2-0.4-0.5-0.5-0.7c1.7-0.6,3.6-2,4.5-3.7h-3.6v-0.7h4.2l0.2-0.1
			l0.6,0.3c0,0.1-0.1,0.1-0.1,0.1c-0.5,1.1-1.4,2.2-2.3,3h1.7v3.2h-0.8v-0.3h-2.1c-0.1,0.4-0.2,0.9-0.2,1.3H472.1z M469.3,184.1
			c0.6,0.3,1.2,0.8,1.5,1.2l-0.6,0.5c-0.3-0.4-1-0.9-1.5-1.2L469.3,184.1z M478.4,183c-0.1,0.1-0.2,0.1-0.3,0.1
			c-0.5,0.4-1.3,1-1.9,1.5c0.3,0.3,0.5,0.6,0.8,0.9c0.6-0.4,1.5-1.2,2-1.7l0.8,0.6c0,0.1-0.1,0.1-0.3,0.1c-0.5,0.4-1.3,1-2,1.4
			c0.7,0.6,1.6,1.1,2.5,1.3c-0.2,0.2-0.4,0.5-0.6,0.7c-0.6-0.2-1.2-0.5-1.8-0.9v1.4c0,0.4,0.1,0.4,0.3,0.4h0.4
			c0.5,0,0.5-0.1,0.5-0.6c0.2,0.1,0.4,0.3,0.7,0.3c-0.1,0.7-0.1,0.9-1.1,0.9h-0.7c-0.9,0-0.9-0.5-0.9-1.1V187h-1.9
			c0,0.9,0,2-1.5,2.8c-0.1-0.2-0.4-0.4-0.6-0.6c1.1-0.6,1.3-1.3,1.3-2v-1.1h2.5c-1.1-1-2.1-2.3-2.6-3.8l0.7-0.2
			c0.2,0.6,0.6,1.2,0.9,1.7c0.6-0.4,1.3-1.1,1.8-1.6L478.4,183z M478.2,190.1l0.5,0.2c0,0.1-0.1,0.1-0.1,0.1c-0.4,1-1,1.8-1.7,2.4
			c0.8,0.4,1.7,0.7,2.7,0.9c-0.2,0.2-0.4,0.5-0.5,0.7c-1.1-0.2-2.1-0.6-2.9-1.1c-0.8,0.5-1.8,0.9-2.8,1.1c-0.1-0.2-0.3-0.5-0.4-0.7
			c0.9-0.2,1.8-0.5,2.6-1c-0.6-0.5-1.1-1.2-1.5-1.9l0.5-0.2h-1.1v-0.7h4.5L478.2,190.1z M474.9,190.8c0.3,0.6,0.8,1.2,1.4,1.6
			c0.6-0.4,1-1,1.4-1.6H474.9z"/>
		<path class="st5" d="M488.4,190.5c0.3,0.6,0.7,1.1,1.2,1.5c0.7-0.4,1.5-1,2.1-1.4l0.8,0.6c0,0.1-0.1,0.1-0.3,0.1
			c-0.5,0.4-1.3,0.8-2,1.2c0.8,0.6,1.9,1,3,1.3c-0.2,0.2-0.4,0.5-0.5,0.7c-2.4-0.6-4.2-2-5.1-4h-1.7v2.6c0.9-0.1,2-0.3,3-0.4l0,0.7
			c-1.8,0.3-3.6,0.6-4.8,0.8c0,0.1-0.1,0.2-0.2,0.2l-0.4-0.9c0.4-0.1,0.9-0.1,1.5-0.2v-2.7h-1.8v-0.8h2.5v-1.5h-2.1v-0.8h2.1v-1.4
			h-2.5v0.7c0,2.3-0.2,5.5-1.6,7.7c-0.2-0.1-0.6-0.4-0.8-0.4c1.3-2.1,1.5-5.1,1.5-7.2v-3.9h9.9v3.2h-2v0h0.2c0,0.1-0.1,0.2-0.3,0.2
			v1.2h2.3v0.8h-2.3v1.5h2.8v0.8H488.4z M483.2,183.7v1.6h8.2v-1.6H483.2z M486.8,186.1c0,0.1-0.1,0.2-0.2,0.2v1.2h2.8v-1.4h-2.8v0
			H486.8z M486.6,188.2v1.5h2.8v-1.5H486.6z"/>
		<path class="st5" d="M499.3,189.6l-1.9,0.4v4.5h-0.9v-4.3c-0.7,0.2-1.4,0.3-1.9,0.4c0,0.1-0.1,0.2-0.2,0.2l-0.3-1
			c0.7-0.1,1.5-0.3,2.4-0.4v-3.4h-1.3c-0.1,0.8-0.3,1.5-0.5,2.1c-0.2-0.1-0.5-0.3-0.7-0.4c0.4-1.1,0.6-2.9,0.7-4.6l1,0.2
			c0,0.1-0.1,0.1-0.3,0.1c0,0.6-0.1,1.1-0.2,1.7h1.2v-2.8l1.1,0.1c0,0.1-0.1,0.2-0.2,0.2v2.5h1.7v0.9h-1.7v3.2l1.8-0.4L499.3,189.6z
			 M505.5,184.9l0.5,0c0,0.1,0,0.2,0,0.3c-0.2,6.1-0.5,8.2-1,8.8c-0.2,0.4-0.5,0.5-1.4,0.5c-0.3,0-0.6,0-0.9,0
			c0-0.3-0.1-0.6-0.2-0.9c0.6,0,1.1,0.1,1.4,0.1c0.2,0,0.3,0,0.5-0.2c0.4-0.4,0.6-2.4,0.9-7.7h-1c-0.4,3.2-1.3,6.9-2.7,8.8
			c-0.2-0.1-0.5-0.3-0.8-0.4c1.4-1.7,2.3-5.3,2.7-8.4h-1.1c-0.5,2.7-1.5,5.9-2.8,7.5c-0.2-0.2-0.5-0.3-0.8-0.4
			c1.3-1.5,2.3-4.5,2.8-7.1h-1.1c-0.3,1.1-0.8,2.1-1.3,2.9c-0.1-0.1-0.5-0.4-0.7-0.5c0.9-1.3,1.5-3.6,1.9-5.9l1.1,0.2
			c0,0.1-0.1,0.1-0.3,0.1c-0.1,0.8-0.3,1.5-0.5,2.3h4.7L505.5,184.9z"/>
		<path class="st5" d="M519.2,191.3h-4.6c1.2,1,3.1,1.9,4.9,2.2c-0.2,0.2-0.5,0.5-0.6,0.8c-1.8-0.5-3.8-1.6-5.1-2.8v3h-0.9v-2.9
			c-1.3,1.2-3.3,2.2-5.1,2.7c-0.1-0.2-0.4-0.6-0.6-0.7c1.7-0.4,3.6-1.2,4.8-2.2h-4.5v-0.8h5.3v-1.1h-4.1v-0.7h4.1v-1.1h-4.7v-0.7h3
			c-0.1-0.4-0.4-1-0.7-1.4l0.5-0.1h-3.4v-0.8h2.2c-0.2-0.6-0.7-1.4-1.1-2l0.7-0.3c0.5,0.6,1,1.4,1.2,2l-0.7,0.3h1.7v-2.4l1.1,0.1
			c0,0.1-0.1,0.2-0.3,0.2v2.1h1.7v-2.4l1.1,0.1c0,0.1-0.1,0.2-0.3,0.2v2.1h1.7c-0.2-0.1-0.4-0.1-0.5-0.2c0.4-0.6,0.8-1.4,1.1-2
			l1,0.4c0,0.1-0.1,0.1-0.3,0.1c-0.3,0.5-0.7,1.2-1.1,1.8h2.2v0.8h-3l0.4,0.1c0,0.1-0.1,0.1-0.3,0.1c-0.2,0.4-0.5,0.9-0.7,1.3h3.1
			v0.7h-4.9v1.1h4.2v0.7h-4.2v1.1h5.4V191.3z M514.7,186.9c0.2-0.4,0.5-1,0.7-1.4h-4.1c0.3,0.4,0.6,1,0.7,1.4l-0.4,0.1h3.2
			L514.7,186.9z"/>
	</g>
	<g class="st4">
		<path class="st5" d="M233.9,103h-4.7c0-1.3,0.5-2.3,1.7-3.3l0.6-0.6c0.7-0.6,0.8-0.9,0.8-1.7c0-0.6-0.3-0.9-0.7-0.9
			c-0.8,0-0.8,0.7-0.9,1.5h-1.5v-0.3c0-1.4,0.7-2.2,2.3-2.2c1.5,0,2.3,0.8,2.3,2.1c0,1-0.3,1.6-1.2,2.4l-0.9,0.8
			c-0.4,0.4-0.7,0.8-0.8,1.1h2.8V103z"/>
	</g>
	<g class="st4">
		<path class="st5" d="M235.9,100.8c0,0.9,0.2,1.4,0.8,1.4c0.7,0,0.8-0.6,0.8-1.2c0-0.7-0.1-1.3-1-1.3h-0.5v-1h0.5
			c0.6,0,0.9-0.6,0.9-1.2c0-0.7-0.2-1-0.7-1c-0.7,0-0.8,0.5-0.8,1.2h-1.4c0-1.5,0.8-2.2,2.2-2.2c1.4,0,2.2,0.6,2.2,1.9
			c0,0.9-0.4,1.5-1.2,1.7v0c1,0.1,1.3,0.8,1.3,1.8c0,1-0.4,2.3-2.5,2.3c-1.5,0-2.2-0.9-2.2-2.3v0H235.9z"/>
	</g>
	<g class="st4">
		<path class="st5" d="M241,99L241,99c-0.8-0.2-1.1-0.9-1.1-1.5c0-1.5,0.8-2.1,2.2-2.1c1.4,0,2.2,0.6,2.2,2.1c0,0.5-0.3,1.2-1.1,1.5
			v0c0.9,0.2,1.3,0.9,1.3,1.9c0,0.9-0.3,2.3-2.4,2.3c-2.1,0-2.4-1.4-2.4-2.3C239.7,99.9,240.1,99.1,241,99z M242.1,102.1
			c0.7,0,0.9-0.6,0.9-1.3c0-0.7-0.2-1.3-0.9-1.3c-0.7,0-0.9,0.6-0.9,1.3C241.2,101.5,241.4,102.1,242.1,102.1z M242.1,98.5
			c0.4,0,0.7-0.4,0.7-1.1c0-0.7-0.2-1-0.7-1c-0.5,0-0.7,0.4-0.7,1C241.4,98.2,241.7,98.5,242.1,98.5z"/>
	</g>
	<g class="st4">
		<path class="st5" d="M221.7,106.8l1.9,5.2h0v-5.2h1.4v7.6h-1.7l-1.9-5.3h0v5.3h-1.4v-7.6H221.7z"/>
	</g>
	<g class="st4">
		<path class="st5" d="M227.6,106.8h1.9l2,7.6h-1.6l-0.4-1.6h-2l-0.4,1.6h-1.6L227.6,106.8z M227.8,111.6h1.5l-0.7-3.4h0
			L227.8,111.6z"/>
	</g>
	<g class="st4">
		<path class="st5" d="M236,106.8v1.3h-1.7v6.4h-1.5v-6.4h-1.7v-1.3H236z"/>
	</g>
	<g class="st4">
		<path class="st5" d="M236.7,106.8h1.5v2.9h1.8v-2.9h1.5v7.6H240v-3.4h-1.8v3.4h-1.5V106.8z"/>
	</g>
	<g class="st4">
		<path class="st5" d="M244.2,106.8h1.9l2,7.6h-1.6l-0.4-1.6h-2l-0.4,1.6h-1.6L244.2,106.8z M244.4,111.6h1.5l-0.7-3.4h0
			L244.4,111.6z"/>
	</g>
	<g class="st4">
		<path class="st5" d="M250.6,106.8l1.9,5.2h0v-5.2h1.4v7.6h-1.7l-1.9-5.3h0v5.3h-1.4v-7.6H250.6z"/>
	</g>
	<g class="st4">
		<path class="st5" d="M225.5,118.3h2.8c1.3,0,2,0.7,2,2c0,1-0.4,1.7-1.3,1.9v0c1,0.1,1.2,0.7,1.2,2.3c0,0.8,0.1,1.2,0.3,1.4v0.1
			H229c-0.1-0.2-0.2-0.5-0.2-0.8l0-1.5c0-0.6-0.3-1-0.9-1h-0.8v3.2h-1.5V118.3z M227.1,121.7h0.6c0.7,0,1.2-0.3,1.2-1.1
			c0-0.7-0.4-1.1-1.1-1.1h-0.7V121.7z"/>
	</g>
	<g class="st4">
		<path class="st5" d="M233.8,118.2c2.3,0,2.6,1.6,2.6,4s-0.3,4-2.6,4c-2.3,0-2.6-1.6-2.6-4S231.4,118.2,233.8,118.2z M233.8,125
			c0.9,0,1.1-0.8,1.1-2.8c0-2-0.1-2.8-1.1-2.8c-0.9,0-1.1,0.8-1.1,2.8C232.7,124.2,232.8,125,233.8,125z"/>
	</g>
	<g class="st4">
		<path class="st5" d="M238.7,118.3h1.9l2,7.6H241l-0.4-1.6h-2l-0.4,1.6h-1.6L238.7,118.3z M238.9,123.1h1.5l-0.7-3.4h0L238.9,123.1
			z"/>
	</g>
	<g class="st4">
		<path class="st5" d="M243.3,118.3h2.5c2.1,0,2.5,1.5,2.5,3.7c0,2.7-0.6,3.9-2.6,3.9h-2.4V118.3z M244.8,124.8h0.7
			c1.1,0,1.3-0.7,1.3-2.7c0-1.7-0.1-2.6-1.3-2.6h-0.7V124.8z"/>
	</g>
	<g>
		<g class="st4">
			<path class="st5" d="M217.9,131c0.6,0.4,1.3,1,1.6,1.4l-0.5,0.3v4.7c0,0.7-0.3,0.9-1.5,0.9c0-0.2-0.1-0.5-0.2-0.7
				c0.4,0,0.7,0,0.8,0c0.1,0,0.1,0,0.1-0.1v-0.8l-0.3,0.3c-0.1-0.1-0.2-0.2-0.4-0.4c-0.1,0.3-0.3,0.5-0.5,0.7
				c-0.1-0.1-0.2-0.2-0.3-0.2c0.2-0.2,0.3-0.4,0.5-0.7c-0.2-0.1-0.3-0.2-0.5-0.3v2.2h-0.7v-1.6l-0.2,0.4c-0.1-0.1-0.2-0.2-0.4-0.3
				c-0.1,0.3-0.3,0.5-0.4,0.7c-0.1-0.1-0.2-0.2-0.4-0.2c0.2-0.2,0.3-0.5,0.4-0.8c-0.1-0.1-0.3-0.2-0.4-0.3l0.2-0.3l0.4,0.2
				c0.1-0.2,0.1-0.4,0.2-0.6l0.6,0.2c0,0.1-0.1,0.1-0.2,0.1c-0.1,0.2-0.1,0.4-0.2,0.6c0.2,0.1,0.3,0.2,0.4,0.4v-3.4h-1.4v5.1h-0.7
				v-5.5l-0.1,0c-0.1-0.1-0.4-0.3-0.5-0.4v0.8h-0.8V133h-0.8l-0.1,1.1h1.1l0.2,0l0.4,0l0,0.3c-0.1,2.4-0.2,3.2-0.4,3.5
				c-0.2,0.3-0.5,0.3-1.1,0.3c-0.2,0-0.4,0-0.6,0c0-0.2-0.1-0.6-0.2-0.8c0.4,0,0.8,0,1,0c0.1,0,0.2,0,0.3-0.1
				c0.1-0.2,0.2-0.8,0.3-2.5h-1l0,0.3l-0.7-0.1c0.1-0.8,0.2-2,0.2-2.9h1.5v-1.3h-1.6v-0.8h2.4v2.2c0.5-0.3,1.1-0.8,1.4-1.3l0.8,0.3
				c0,0.1-0.1,0.1-0.2,0.1c-0.2,0.3-0.6,0.7-0.9,1h1.6v-1.5h-2.3v-0.8h5.6v0.8H217v1.5h1.6c-0.4-0.4-0.8-0.7-1.3-1L217.9,131z
				 M216.2,133.5c0,0.1-0.1,0.1-0.2,0.1c-0.1,0.2-0.1,0.4-0.2,0.5c0.2,0.1,0.3,0.2,0.4,0.3l-0.3,0.4c-0.1-0.1-0.2-0.2-0.3-0.3
				c-0.1,0.2-0.2,0.4-0.4,0.6c-0.1-0.1-0.2-0.2-0.3-0.2c0.1-0.2,0.3-0.4,0.4-0.6c-0.2-0.1-0.3-0.2-0.5-0.3c0.1-0.2,0.2-0.2,0.3-0.3
				l0.4,0.2c0.1-0.2,0.1-0.4,0.2-0.5L216.2,133.5z M217.2,135.6c0.1,0.1,0.3,0.2,0.4,0.3c0.1-0.2,0.1-0.4,0.2-0.6l0.6,0.2
				c0,0.1-0.1,0.1-0.2,0.1c-0.1,0.2-0.1,0.4-0.2,0.6c0.2,0.1,0.3,0.3,0.4,0.4v-2l-0.3,0.4c-0.1-0.1-0.2-0.2-0.4-0.3
				c-0.1,0.2-0.3,0.5-0.4,0.6c-0.1-0.1-0.2-0.2-0.3-0.2c0.1-0.2,0.3-0.4,0.4-0.7c-0.2-0.1-0.3-0.2-0.5-0.3l0.3-0.3
				c0.1,0.1,0.3,0.1,0.4,0.2c0.1-0.2,0.1-0.4,0.2-0.5l0.6,0.2c0,0.1-0.1,0.1-0.2,0.1c-0.1,0.2-0.1,0.4-0.2,0.6
				c0.2,0.1,0.3,0.2,0.4,0.3v-1.4h-1.5v2.8L217.2,135.6z"/>
			<path class="st5" d="M224.4,135.6v0.7c-0.6,0.1-1.2,0.1-1.8,0.2v1c0,0.8-0.3,0.8-1.6,0.8c0-0.2-0.1-0.5-0.2-0.7
				c0.4,0,0.8,0,0.9,0c0.1,0,0.1,0,0.1-0.1v-0.8c-0.6,0.1-1,0.1-1.4,0.1c0,0.1-0.1,0.1-0.2,0.1l-0.2-0.9c0.5,0,1.1-0.1,1.8-0.1v-0.5
				l0.3,0c0.2-0.1,0.4-0.3,0.6-0.5h-2.4v-0.7h3.1l0.1,0l0.6,0.4c0,0-0.1,0.1-0.2,0.1c-0.3,0.3-0.8,0.8-1.3,1.1v0.1L224.4,135.6z
				 M224.4,130.7v0.7H220v-0.7h1.8v-0.9l1,0.1c0,0.1-0.1,0.1-0.2,0.2v0.7H224.4z M223.9,133.7h-3.3v-1.9h3.3V133.7z M221.3,132.4
				v0.7h1.7v-0.7H221.3z M228.5,132.2H228c-0.2,1.4-0.6,2.6-1.2,3.6c0.4,0.7,1,1.3,1.8,1.7c-0.2,0.2-0.5,0.5-0.6,0.8
				c-0.7-0.4-1.2-1-1.7-1.7c-0.5,0.7-1.2,1.3-2.1,1.7c-0.1-0.2-0.4-0.5-0.6-0.7c0.9-0.4,1.6-1,2.2-1.8c-0.3-0.7-0.6-1.4-0.7-2.1
				c-0.2,0.3-0.3,0.6-0.5,0.9c-0.1-0.2-0.4-0.5-0.6-0.7c0.7-0.9,1.1-2.5,1.4-4l1.1,0.2c0,0.1-0.1,0.1-0.2,0.1
				c-0.1,0.4-0.2,0.9-0.3,1.3h2.6V132.2z M225.6,132.2c0,0,0,0.1,0,0.1c0.1,0.8,0.4,1.7,0.7,2.5c0.4-0.8,0.6-1.6,0.8-2.6H225.6z"/>
			<path class="st5" d="M231.2,133.4v2.9c0.6,1,1.9,1,3.3,1c1,0,2.3,0,3.1-0.1c-0.1,0.2-0.2,0.6-0.3,0.9c-0.6,0-1.5,0-2.4,0
				c-2.1,0-3.2,0-4.1-1.1c-0.4,0.4-0.9,0.8-1.2,1c0,0.1,0,0.1-0.1,0.2l-0.5-0.9c0.4-0.3,0.9-0.6,1.3-0.9v-2.2h-1.2v-0.8H231.2z
				 M229.8,130c0.6,0.4,1.3,1,1.6,1.4l-0.7,0.6c-0.3-0.4-1-1-1.5-1.5L229.8,130z M232.3,132.4h1.4c0.1-0.2,0.1-0.4,0.1-0.7h-2.3V131
				h1.5c-0.1-0.3-0.4-0.7-0.6-0.9l0.7-0.3c0.3,0.3,0.6,0.8,0.7,1.1l-0.3,0.1h1.6l-0.2-0.1c0.2-0.3,0.5-0.8,0.6-1.2l1,0.3
				c0,0.1-0.1,0.1-0.2,0.1c-0.2,0.3-0.4,0.6-0.6,0.9h1.7v0.7h-2.6c-0.1,0.2-0.2,0.4-0.2,0.7h2.1v4.5h-0.8v-0.3h-2.6v0.3h-0.8V132.4z
				 M235.7,133.6V133h-2.6v0.6H235.7z M233.1,134.2v0.6h2.6v-0.6H233.1z M233.1,135.9h2.6v-0.6h-2.6V135.9z"/>
			<path class="st5" d="M242.3,137.4h-4.1v-0.6l0.7-0.7c1.4-1.5,2.2-2.4,2.2-3.4c0-0.7-0.3-1.2-1.2-1.2c-0.5,0-1,0.3-1.3,0.5
				l-0.3-0.8c0.4-0.3,1.1-0.6,1.8-0.6c1.4,0,2,0.9,2,2c0,1.2-0.8,2.3-2,3.5l-0.6,0.6v0h2.7V137.4z"/>
			<path class="st5" d="M245.9,133.8c0.8,0.1,1.4,0.8,1.4,1.7c0,1.1-0.8,2-2.4,2c-0.7,0-1.3-0.2-1.7-0.4l0.3-0.8
				c0.2,0.2,0.8,0.4,1.3,0.4c1,0,1.4-0.6,1.4-1.2c0-0.9-0.7-1.3-1.5-1.3h-0.5v-0.8h0.4c0.6,0,1.4-0.4,1.4-1.1c0-0.5-0.3-1-1.1-1
				c-0.5,0-0.9,0.2-1.2,0.4l-0.3-0.8c0.3-0.3,1-0.5,1.7-0.5c1.3,0,1.9,0.8,1.9,1.6C247.1,132.9,246.6,133.5,245.9,133.8L245.9,133.8
				z"/>
			<path class="st5" d="M249.5,133.9c-0.7-0.4-1-0.9-1-1.5c0-1.1,0.9-1.8,2-1.8c1.3,0,1.9,0.9,1.9,1.7c0,0.6-0.3,1.2-1,1.6v0
				c0.7,0.3,1.3,0.9,1.3,1.8c0,1.2-0.9,2-2.2,2c-1.4,0-2.2-0.9-2.2-1.8C248.3,134.8,248.8,134.2,249.5,133.9L249.5,133.9z
				 M251.6,135.7c0-0.8-0.5-1.2-1.2-1.4c-0.7,0.2-1,0.8-1,1.4c0,0.7,0.4,1.2,1.1,1.2C251.2,136.8,251.6,136.3,251.6,135.7z
				 M249.5,132.3c0,0.6,0.4,1,1.1,1.2c0.5-0.2,0.8-0.6,0.8-1.2c0-0.5-0.3-1-0.9-1C249.8,131.3,249.5,131.8,249.5,132.3z"/>
			<path class="st5" d="M255.9,134.7l0.4,0.1c0,0.1,0,0.2,0,0.2c-0.1,1.9-0.3,2.7-0.5,2.9c-0.2,0.2-0.4,0.3-1.1,0.3
				c-0.2,0-0.3,0-0.5,0c0-0.2-0.1-0.5-0.2-0.7c0.4,0,0.7,0,0.9,0c0.1,0,0.2,0,0.3-0.1c0.2-0.2,0.3-0.7,0.4-2h-1.1
				c0,0.2-0.1,0.4-0.1,0.5c-0.7-0.1-0.7-0.1-0.8-0.1c0.1-0.5,0.3-1.2,0.4-1.8h-0.7v-0.8h3.5v0.8h-2c0,0.2-0.1,0.5-0.1,0.7h1.1
				L255.9,134.7z M256.4,130.1v2.6h-2.7v-2.6H256.4z M255.6,132v-1.2h-1.1v1.2H255.6z M257.8,132.3v1.7c0,1.3-0.1,3.1-1,4.4
				c-0.1-0.1-0.5-0.4-0.6-0.5c0.8-1.1,0.9-2.7,0.9-3.9v-2.3h1.8v-1.8l1,0.1c0,0.1-0.1,0.1-0.2,0.1v0.4h1.8v0.7h-1.8v0.5h2.2
				c0,0.1-0.1,1.2-0.3,1.8l-0.7-0.2c0-0.2,0.1-0.6,0.1-0.9H257.8z M259.3,135.1c0,0.1-0.1,0.1-0.2,0.1c-0.1,1.1-0.3,2.3-1.3,3
				c-0.1-0.2-0.3-0.4-0.5-0.6c0.8-0.6,1-1.6,1-2.7L259.3,135.1z M257.9,133.1l0.9-0.1v-0.7l1,0.1c0,0.1-0.1,0.1-0.2,0.1v0.5l1-0.1
				l0.1,0.6l-1,0.1v0.3c0,0.2,0,0.2,0.3,0.2h0.8c0.2,0,0.2-0.1,0.3-0.5c0.2,0.1,0.4,0.2,0.6,0.2c-0.1,0.7-0.3,0.9-0.8,0.9h-1
				c-0.9,0-0.9-0.3-0.9-1.1l-0.8,0.1L257.9,133.1z M260.4,137.1c0,0.3,0,0.3,0.2,0.3c0.5,0,0.5,0,0.6-0.2c0-0.1,0-0.4,0-0.8
				c0.1,0.1,0.4,0.2,0.6,0.3c0,0.4,0,0.8-0.1,0.9c-0.1,0.3-0.4,0.4-0.8,0.4h-0.5c-0.8,0-0.8-0.5-0.8-1v-2.2l1,0.1
				c0,0.1-0.1,0.1-0.2,0.1V137.1z"/>
		</g>
	</g>
	<g class="st4">
		<path class="st5" d="M386.6,234.7h1.5v2.9h1.8v-2.9h1.5v7.6h-1.5v-3.4h-1.8v3.4h-1.5V234.7z"/>
	</g>
	<g class="st4">
		<path class="st5" d="M392.6,242.3v-7.6h1.5v7.6H392.6z"/>
	</g>
	<g class="st4">
		<path class="st5" d="M395.2,242.3v-7.6h1.5v6.4h2.7v1.3H395.2z"/>
	</g>
	<g class="st4">
		<path class="st5" d="M404,234.7v1.3h-1.7v6.4h-1.5v-6.4h-1.7v-1.3H404z"/>
	</g>
	<g class="st4">
		<path class="st5" d="M407,234.5c2.3,0,2.6,1.6,2.6,4s-0.3,4-2.6,4s-2.6-1.6-2.6-4S404.7,234.5,407,234.5z M407,241.3
			c0.9,0,1.1-0.8,1.1-2.8c0-2-0.1-2.8-1.1-2.8s-1.1,0.8-1.1,2.8C406,240.5,406.1,241.3,407,241.3z"/>
		<path class="st5" d="M412.3,234.7l1.9,5.2h0v-5.2h1.4v7.6h-1.7l-1.9-5.3h0v5.3h-1.4v-7.6H412.3z"/>
	</g>
	<g class="st4">
		<path class="st5" d="M387.9,246.1h2.7c1.6,0,2.1,1.1,2.1,2.3c0,1.6-1,2.3-2.4,2.3h-0.8v3h-1.5V246.1z M389.5,249.6h0.7
			c0.6,0,1-0.4,1-1.1c0-0.7-0.3-1.2-1.1-1.2h-0.6V249.6z"/>
	</g>
	<g class="st4">
		<path class="st5" d="M393.4,253.8v-7.6h1.5v6.4h2.7v1.3H393.4z"/>
	</g>
	<g class="st4">
		<path class="st5" d="M400.2,246.1h1.9l2,7.6h-1.6l-0.4-1.6h-2l-0.4,1.6h-1.6L400.2,246.1z M400.4,250.9h1.5l-0.7-3.4h0
			L400.4,250.9z"/>
	</g>
	<g class="st4">
		<path class="st5" d="M407.8,248.7c0-1.1-0.2-1.6-0.9-1.6c-0.8,0-1,0.8-1,2.9c0,2.3,0.3,2.7,1,2.7c0.6,0,1-0.3,1-1.9h1.5
			c0,1.6-0.4,3.1-2.4,3.1c-2.3,0-2.6-1.6-2.6-4s0.3-4,2.6-4c2.2,0,2.4,1.6,2.4,2.7H407.8z"/>
	</g>
	<g class="st4">
		<path class="st5" d="M414.5,246.1v1.3h-2.7v1.8h2.6v1.3h-2.6v2h2.8v1.3h-4.4v-7.6H414.5z"/>
	</g>
	<g>
		<g class="st4">
			<path class="st5" d="M387.5,261.4h-4.9c-0.2,0.3-0.5,0.7-0.7,1h1.5v-0.8l1,0.1c0,0.1-0.1,0.1-0.2,0.1v0.6h2.6v2.2
				c0,0.8-0.4,0.9-1.8,0.9c0-0.2-0.2-0.5-0.3-0.7c0.5,0,0.9,0,1,0c0.1,0,0.2,0,0.2-0.2v-1.5h-1.8v2.9h-0.8v-2.9h-1.6v2.4h-0.8v-2.2
				c-0.4,0.3-0.8,0.6-1.2,0.8c-0.1-0.2-0.4-0.5-0.6-0.7c1-0.5,1.8-1.3,2.4-2.1h-2.1v-0.7h2.6c0.2-0.3,0.3-0.6,0.4-0.9
				c-0.7,0.2-1.5,0.3-2.2,0.5c-0.1-0.2-0.4-0.5-0.5-0.7c1-0.2,2.1-0.4,3-0.7c-0.8-0.3-1.6-0.5-2.4-0.7l0.6-0.5c0.9,0.2,2,0.5,3,0.9
				c0.8-0.3,1.4-0.6,1.9-0.9l0.8,0.5c0,0-0.1,0.1-0.2,0.1c0,0-0.1,0-0.1,0c-0.4,0.3-0.9,0.5-1.4,0.7c0.8,0.3,1.4,0.6,2,0.8l-0.7,0.6
				c-0.6-0.3-1.4-0.7-2.4-1c-0.3,0.1-0.7,0.2-1.1,0.3l0.7,0.2c0,0.1-0.1,0.1-0.2,0.1c-0.1,0.2-0.2,0.5-0.3,0.7h4.5V261.4z"/>
			<path class="st5" d="M394.4,258.9c0.8,0.4,1.8,0.9,2.3,1.3l-0.6,0.5c-0.1,0-0.1-0.1-0.2-0.1v4.5c0,0.8-0.4,0.9-1.8,0.9
				c0-0.2-0.1-0.5-0.3-0.7c0.3,0,0.5,0,0.7,0c0.4,0,0.5,0,0.5-0.2v-4.4h-2.3v5.2H392v-5.2h-2.2v5.2h-0.8v-5.4l-0.4,0.2
				c-0.1-0.2-0.4-0.5-0.6-0.6c0.8-0.3,1.7-0.8,2.2-1.3l0.9,0.4c0,0.1-0.1,0.1-0.2,0.1c-0.3,0.2-0.6,0.5-0.9,0.7h1.9v-1.2h-3.6v-0.8
				h8.1v0.8C395.9,258.9,395.3,258.9,394.4,258.9L394.4,258.9z M390.4,263.4c0.2,0.1,0.4,0.2,0.6,0.4c0.1-0.2,0.2-0.4,0.3-0.7
				l0.7,0.2c0,0.1-0.1,0.1-0.2,0.1c-0.1,0.2-0.2,0.5-0.3,0.7c0.2,0.2,0.4,0.3,0.5,0.5l-0.3,0.5c-0.1-0.1-0.3-0.3-0.5-0.5
				c-0.2,0.3-0.5,0.7-0.8,0.9c-0.1-0.1-0.3-0.2-0.4-0.3c0.3-0.2,0.5-0.5,0.8-0.9c-0.2-0.2-0.4-0.3-0.6-0.4L390.4,263.4z
				 M391.8,261.2c0,0.1-0.1,0.1-0.2,0.1c-0.1,0.2-0.2,0.4-0.3,0.6c0.2,0.2,0.4,0.3,0.5,0.4l-0.3,0.4c-0.1-0.1-0.3-0.3-0.5-0.4
				c-0.2,0.3-0.4,0.6-0.7,0.8c-0.1-0.1-0.3-0.2-0.4-0.3c0.2-0.2,0.5-0.5,0.7-0.7c-0.2-0.1-0.4-0.2-0.6-0.3l0.3-0.4
				c0.2,0.1,0.4,0.2,0.5,0.3c0.1-0.2,0.2-0.4,0.3-0.6L391.8,261.2z M392.8,258.9v1.2h2.3c-0.5-0.3-1-0.6-1.4-0.8l0.6-0.4H392.8z
				 M394.9,263.2c0,0.1-0.1,0.1-0.2,0.1c-0.1,0.2-0.2,0.4-0.3,0.6c0.2,0.2,0.4,0.3,0.6,0.4l-0.3,0.5c-0.1-0.1-0.3-0.3-0.5-0.4
				c-0.2,0.4-0.5,0.7-0.8,0.9c-0.1-0.1-0.3-0.2-0.4-0.3c0.3-0.2,0.5-0.5,0.8-0.9c-0.2-0.1-0.4-0.3-0.6-0.4l0.3-0.4
				c0.2,0.1,0.4,0.2,0.6,0.3c0.1-0.2,0.2-0.4,0.3-0.6L394.9,263.2z M394.8,261.2c0,0.1-0.1,0.1-0.2,0.1c-0.1,0.2-0.2,0.4-0.3,0.6
				c0.2,0.2,0.4,0.3,0.5,0.4l-0.3,0.4c-0.1-0.1-0.3-0.3-0.5-0.4c-0.2,0.3-0.5,0.6-0.7,0.8c-0.1-0.1-0.3-0.2-0.4-0.3
				c0.2-0.2,0.5-0.5,0.7-0.8c-0.2-0.1-0.4-0.3-0.6-0.4l0.3-0.4c0.2,0.1,0.4,0.2,0.6,0.3c0.1-0.2,0.2-0.4,0.3-0.6L394.8,261.2z"/>
			<path class="st5" d="M399.5,264.3c0,0.3,0,0.4,0.2,0.4h0.6c0.2,0,0.2-0.2,0.2-0.9c0.2,0.1,0.4,0.3,0.7,0.3
				c-0.1,0.9-0.3,1.2-0.8,1.2h-0.8c-0.7,0-0.8-0.2-0.8-1.1v-1.1h-0.6v0.6h-0.7V260l0.8,0.1c0,0.1-0.1,0.1-0.2,0.1v2.2h0.6v-3
				c-0.5,0.1-0.9,0.2-1.4,0.2c0-0.2-0.1-0.5-0.2-0.7c0.5-0.1,1.1-0.2,1.6-0.3v-1.1l0.9,0.1c0,0.1-0.1,0.1-0.2,0.1v0.7
				c0.4-0.1,0.7-0.2,1-0.3l0.6,0.7c0,0-0.1,0-0.1,0c0,0-0.1,0-0.1,0c-0.4,0.1-0.9,0.3-1.5,0.4v3.2h0.7V260l0.8,0.1
				c0,0.1-0.1,0.1-0.2,0.1v3.4h-0.7v-0.4h-0.7V264.3z M403.2,264.8c0,0-0.1,0.1-0.2,0.1c-0.4,0.4-1.1,0.9-1.8,1.2
				c-0.1-0.2-0.4-0.4-0.6-0.6c0.7-0.3,1.4-0.7,1.7-1.1L403.2,264.8z M401.6,259.5h1.2c0.1-0.2,0.1-0.5,0.2-0.8h-1.7V258h4.5v0.7
				h-1.9c-0.1,0.2-0.2,0.5-0.3,0.8h1.8v4.8h-3.8V259.5z M404.6,260.9v-0.7h-2.2v0.7H404.6z M404.6,262.3v-0.8h-2.2v0.8H404.6z
				 M404.6,263.6v-0.8h-2.2v0.8H404.6z M405.2,266.1c-0.3-0.3-1-0.9-1.5-1.2l0.6-0.4c0.5,0.3,1.2,0.8,1.5,1.2L405.2,266.1z"/>
			<path class="st5" d="M414.6,261h-3.4c0.6,2,1.7,3.5,3.5,4.2c-0.2,0.2-0.5,0.6-0.6,0.8c-1.8-0.7-2.9-2.1-3.6-4.1
				c-0.5,1.6-1.4,3.2-3.6,4.1c-0.1-0.2-0.4-0.5-0.6-0.7c2.3-0.9,3.2-2.6,3.5-4.3h-3.3v-0.9h3.5c0.1-0.9,0.1-1.7,0.1-2.5l1.2,0.1
				c0,0.1-0.1,0.2-0.2,0.2c0,0.7,0,1.5-0.1,2.3h3.7V261z"/>
			<path class="st5" d="M416.8,259.1v2c0,1.5-0.1,3.6-0.9,5c-0.1-0.1-0.5-0.4-0.7-0.5c0.7-1.3,0.8-3.2,0.8-4.5v-2.7h3.3v-0.7
				l1.1,0.1c0,0.1-0.1,0.1-0.2,0.2v0.5h3.4v0.7H416.8z M422.2,263.5l0.6,0.3c0,0-0.1,0.1-0.1,0.1c-0.4,0.5-0.9,0.8-1.5,1.1
				c0.8,0.2,1.6,0.3,2.5,0.4c-0.2,0.2-0.4,0.5-0.5,0.7c-1.1-0.1-2.2-0.3-3.1-0.6c-0.9,0.3-2,0.5-3.1,0.7c-0.1-0.2-0.2-0.5-0.3-0.6
				c0.9-0.1,1.8-0.2,2.6-0.4c-0.3-0.2-0.6-0.4-0.8-0.6c-0.4,0.2-0.7,0.4-1.1,0.5c-0.1-0.2-0.3-0.4-0.5-0.5c1-0.3,1.8-0.8,2.4-1.2
				h-1.4v-2.7h1.7l0.2-0.4h-2.5v-0.6h6.3v0.6h-2.9c-0.1,0.1-0.1,0.3-0.2,0.4h2.5v2.7h-2.5c0,0-0.1,0.1-0.2,0.1
				c-0.1,0.1-0.2,0.2-0.3,0.3h2.2L422.2,263.5z M418.6,260.9v0.4h3.4v-0.4H418.6z M418.6,261.6v0.4h3.4v-0.4H418.6z M418.6,262.4
				v0.4h3.4v-0.4H418.6z M419.1,264c0.3,0.3,0.7,0.5,1.1,0.7c0.5-0.2,0.9-0.4,1.2-0.7H419.1z"/>
		</g>
	</g>
</g>
</svg>
